%TF.GenerationSoftware,KiCad,Pcbnew,9.0.4*%
%TF.CreationDate,2025-09-01T12:55:03-07:00*%
%TF.ProjectId,Putting_Device,50757474-696e-4675-9f44-65766963652e,rev?*%
%TF.SameCoordinates,Original*%
%TF.FileFunction,Soldermask,Top*%
%TF.FilePolarity,Negative*%
%FSLAX46Y46*%
G04 Gerber Fmt 4.6, Leading zero omitted, Abs format (unit mm)*
G04 Created by KiCad (PCBNEW 9.0.4) date 2025-09-01 12:55:03*
%MOMM*%
%LPD*%
G01*
G04 APERTURE LIST*
G04 Aperture macros list*
%AMRoundRect*
0 Rectangle with rounded corners*
0 $1 Rounding radius*
0 $2 $3 $4 $5 $6 $7 $8 $9 X,Y pos of 4 corners*
0 Add a 4 corners polygon primitive as box body*
4,1,4,$2,$3,$4,$5,$6,$7,$8,$9,$2,$3,0*
0 Add four circle primitives for the rounded corners*
1,1,$1+$1,$2,$3*
1,1,$1+$1,$4,$5*
1,1,$1+$1,$6,$7*
1,1,$1+$1,$8,$9*
0 Add four rect primitives between the rounded corners*
20,1,$1+$1,$2,$3,$4,$5,0*
20,1,$1+$1,$4,$5,$6,$7,0*
20,1,$1+$1,$6,$7,$8,$9,0*
20,1,$1+$1,$8,$9,$2,$3,0*%
G04 Aperture macros list end*
%ADD10RoundRect,0.075000X0.075000X-0.125000X0.075000X0.125000X-0.075000X0.125000X-0.075000X-0.125000X0*%
%ADD11R,0.450000X0.630000*%
%ADD12R,2.600000X1.700000*%
%ADD13RoundRect,0.075000X-0.075000X0.125000X-0.075000X-0.125000X0.075000X-0.125000X0.075000X0.125000X0*%
%ADD14RoundRect,0.250000X-0.250000X-1.500000X0.250000X-1.500000X0.250000X1.500000X-0.250000X1.500000X0*%
%ADD15RoundRect,0.250001X-0.499999X-1.449999X0.499999X-1.449999X0.499999X1.449999X-0.499999X1.449999X0*%
%ADD16RoundRect,0.135000X0.185000X-0.135000X0.185000X0.135000X-0.185000X0.135000X-0.185000X-0.135000X0*%
%ADD17RoundRect,0.225000X-0.250000X0.225000X-0.250000X-0.225000X0.250000X-0.225000X0.250000X0.225000X0*%
%ADD18RoundRect,0.250000X0.350000X-0.450000X0.350000X0.450000X-0.350000X0.450000X-0.350000X-0.450000X0*%
%ADD19RoundRect,0.135000X-0.185000X0.135000X-0.185000X-0.135000X0.185000X-0.135000X0.185000X0.135000X0*%
%ADD20RoundRect,0.225000X0.225000X0.250000X-0.225000X0.250000X-0.225000X-0.250000X0.225000X-0.250000X0*%
%ADD21RoundRect,0.075000X0.125000X0.075000X-0.125000X0.075000X-0.125000X-0.075000X0.125000X-0.075000X0*%
%ADD22RoundRect,0.087500X0.087500X-0.225000X0.087500X0.225000X-0.087500X0.225000X-0.087500X-0.225000X0*%
%ADD23RoundRect,0.087500X0.225000X-0.087500X0.225000X0.087500X-0.225000X0.087500X-0.225000X-0.087500X0*%
%ADD24RoundRect,0.062500X0.350000X0.062500X-0.350000X0.062500X-0.350000X-0.062500X0.350000X-0.062500X0*%
%ADD25RoundRect,0.062500X0.062500X0.350000X-0.062500X0.350000X-0.062500X-0.350000X0.062500X-0.350000X0*%
%ADD26R,3.600000X3.600000*%
%ADD27RoundRect,0.075000X-0.125000X-0.075000X0.125000X-0.075000X0.125000X0.075000X-0.125000X0.075000X0*%
G04 APERTURE END LIST*
D10*
%TO.C,C11*%
X144800000Y-62866310D03*
X144800000Y-62366310D03*
%TD*%
%TO.C,C9*%
X143300000Y-65341310D03*
X143300000Y-64841310D03*
%TD*%
D11*
%TO.C,U3*%
X139250000Y-57376310D03*
X138300000Y-57376310D03*
X137350000Y-57376310D03*
X137350000Y-60056310D03*
X138300000Y-60056310D03*
X139250000Y-60056310D03*
D12*
X138300000Y-58716310D03*
%TD*%
D13*
%TO.C,C8*%
X144800000Y-65091310D03*
X144800000Y-65591310D03*
%TD*%
D14*
%TO.C,BT1*%
X130000000Y-59291310D03*
X132000000Y-59291310D03*
D15*
X127650000Y-65041310D03*
X134350000Y-65041310D03*
%TD*%
D10*
%TO.C,C15*%
X144300000Y-59366310D03*
X144300000Y-58866310D03*
%TD*%
%TO.C,C16*%
X144800000Y-68091310D03*
X144800000Y-67591310D03*
%TD*%
D16*
%TO.C,R1*%
X139700000Y-67601310D03*
X139700000Y-66581310D03*
%TD*%
D17*
%TO.C,C5*%
X141200000Y-58466310D03*
X141200000Y-60016310D03*
%TD*%
D18*
%TO.C,Y1*%
X131300000Y-72541310D03*
X131300000Y-70341310D03*
X129600000Y-70341310D03*
X129600000Y-72541310D03*
%TD*%
D13*
%TO.C,C10*%
X141300000Y-64091310D03*
X141300000Y-64591310D03*
%TD*%
D10*
%TO.C,C12*%
X143250000Y-62416310D03*
X143250000Y-61916310D03*
%TD*%
%TO.C,C14*%
X142800000Y-58866310D03*
X142800000Y-58366310D03*
%TD*%
D19*
%TO.C,R2*%
X142012500Y-70181310D03*
X142012500Y-71201310D03*
%TD*%
D10*
%TO.C,C7*%
X141800000Y-67091310D03*
X141800000Y-66591310D03*
%TD*%
D20*
%TO.C,C3*%
X138350000Y-62091310D03*
X136800000Y-62091310D03*
%TD*%
D21*
%TO.C,C2*%
X130775000Y-73841310D03*
X130275000Y-73841310D03*
%TD*%
D20*
%TO.C,C4*%
X138375000Y-66241310D03*
X136825000Y-66241310D03*
%TD*%
D10*
%TO.C,C13*%
X141800000Y-62366310D03*
X141800000Y-61866310D03*
%TD*%
D22*
%TO.C,U2*%
X143450000Y-72553810D03*
X143950000Y-72553810D03*
X144450000Y-72553810D03*
X144950000Y-72553810D03*
D23*
X145112500Y-71891310D03*
X145112500Y-71391310D03*
X145112500Y-70891310D03*
D22*
X144950000Y-70228810D03*
X144450000Y-70228810D03*
X143950000Y-70228810D03*
X143450000Y-70228810D03*
D23*
X143287500Y-70891310D03*
X143287500Y-71391310D03*
X143287500Y-71891310D03*
%TD*%
D16*
%TO.C,R3*%
X142012500Y-73151310D03*
X142012500Y-72131310D03*
%TD*%
D24*
%TO.C,U1*%
X140675000Y-73041310D03*
X140675000Y-72641310D03*
X140675000Y-72241310D03*
X140675000Y-71841310D03*
X140675000Y-71441310D03*
X140675000Y-71041310D03*
X140675000Y-70641310D03*
X140675000Y-70241310D03*
X140675000Y-69841310D03*
X140675000Y-69441310D03*
D25*
X140037500Y-68803810D03*
X139637500Y-68803810D03*
X139237500Y-68803810D03*
X138837500Y-68803810D03*
X138437500Y-68803810D03*
X138037500Y-68803810D03*
X137637500Y-68803810D03*
X137237500Y-68803810D03*
X136837500Y-68803810D03*
X136437500Y-68803810D03*
D24*
X135800000Y-69441310D03*
X135800000Y-69841310D03*
X135800000Y-70241310D03*
X135800000Y-70641310D03*
X135800000Y-71041310D03*
X135800000Y-71441310D03*
X135800000Y-71841310D03*
X135800000Y-72241310D03*
X135800000Y-72641310D03*
X135800000Y-73041310D03*
D25*
X136437500Y-73678810D03*
X136837500Y-73678810D03*
X137237500Y-73678810D03*
X137637500Y-73678810D03*
X138037500Y-73678810D03*
X138437500Y-73678810D03*
X138837500Y-73678810D03*
X139237500Y-73678810D03*
X139637500Y-73678810D03*
X140037500Y-73678810D03*
D26*
X138237500Y-71241310D03*
%TD*%
D27*
%TO.C,C1*%
X130050000Y-68841310D03*
X130550000Y-68841310D03*
%TD*%
D13*
%TO.C,C6*%
X143300000Y-67341310D03*
X143300000Y-67841310D03*
%TD*%
M02*
