%TF.GenerationSoftware,KiCad,Pcbnew,9.0.4*%
%TF.CreationDate,2025-09-01T12:55:03-07:00*%
%TF.ProjectId,Putting_Device,50757474-696e-4675-9f44-65766963652e,rev?*%
%TF.SameCoordinates,Original*%
%TF.FileFunction,Copper,L1,Top*%
%TF.FilePolarity,Positive*%
%FSLAX46Y46*%
G04 Gerber Fmt 4.6, Leading zero omitted, Abs format (unit mm)*
G04 Created by KiCad (PCBNEW 9.0.4) date 2025-09-01 12:55:03*
%MOMM*%
%LPD*%
G01*
G04 APERTURE LIST*
G04 Aperture macros list*
%AMRoundRect*
0 Rectangle with rounded corners*
0 $1 Rounding radius*
0 $2 $3 $4 $5 $6 $7 $8 $9 X,Y pos of 4 corners*
0 Add a 4 corners polygon primitive as box body*
4,1,4,$2,$3,$4,$5,$6,$7,$8,$9,$2,$3,0*
0 Add four circle primitives for the rounded corners*
1,1,$1+$1,$2,$3*
1,1,$1+$1,$4,$5*
1,1,$1+$1,$6,$7*
1,1,$1+$1,$8,$9*
0 Add four rect primitives between the rounded corners*
20,1,$1+$1,$2,$3,$4,$5,0*
20,1,$1+$1,$4,$5,$6,$7,0*
20,1,$1+$1,$6,$7,$8,$9,0*
20,1,$1+$1,$8,$9,$2,$3,0*%
G04 Aperture macros list end*
%TA.AperFunction,SMDPad,CuDef*%
%ADD10RoundRect,0.075000X0.075000X-0.125000X0.075000X0.125000X-0.075000X0.125000X-0.075000X-0.125000X0*%
%TD*%
%TA.AperFunction,SMDPad,CuDef*%
%ADD11R,0.450000X0.630000*%
%TD*%
%TA.AperFunction,SMDPad,CuDef*%
%ADD12R,2.600000X1.700000*%
%TD*%
%TA.AperFunction,SMDPad,CuDef*%
%ADD13RoundRect,0.075000X-0.075000X0.125000X-0.075000X-0.125000X0.075000X-0.125000X0.075000X0.125000X0*%
%TD*%
%TA.AperFunction,SMDPad,CuDef*%
%ADD14RoundRect,0.250000X-0.250000X-1.500000X0.250000X-1.500000X0.250000X1.500000X-0.250000X1.500000X0*%
%TD*%
%TA.AperFunction,SMDPad,CuDef*%
%ADD15RoundRect,0.250001X-0.499999X-1.449999X0.499999X-1.449999X0.499999X1.449999X-0.499999X1.449999X0*%
%TD*%
%TA.AperFunction,SMDPad,CuDef*%
%ADD16RoundRect,0.135000X0.185000X-0.135000X0.185000X0.135000X-0.185000X0.135000X-0.185000X-0.135000X0*%
%TD*%
%TA.AperFunction,SMDPad,CuDef*%
%ADD17RoundRect,0.225000X-0.250000X0.225000X-0.250000X-0.225000X0.250000X-0.225000X0.250000X0.225000X0*%
%TD*%
%TA.AperFunction,SMDPad,CuDef*%
%ADD18RoundRect,0.250000X0.350000X-0.450000X0.350000X0.450000X-0.350000X0.450000X-0.350000X-0.450000X0*%
%TD*%
%TA.AperFunction,SMDPad,CuDef*%
%ADD19RoundRect,0.135000X-0.185000X0.135000X-0.185000X-0.135000X0.185000X-0.135000X0.185000X0.135000X0*%
%TD*%
%TA.AperFunction,SMDPad,CuDef*%
%ADD20RoundRect,0.225000X0.225000X0.250000X-0.225000X0.250000X-0.225000X-0.250000X0.225000X-0.250000X0*%
%TD*%
%TA.AperFunction,SMDPad,CuDef*%
%ADD21RoundRect,0.075000X0.125000X0.075000X-0.125000X0.075000X-0.125000X-0.075000X0.125000X-0.075000X0*%
%TD*%
%TA.AperFunction,SMDPad,CuDef*%
%ADD22RoundRect,0.087500X0.087500X-0.225000X0.087500X0.225000X-0.087500X0.225000X-0.087500X-0.225000X0*%
%TD*%
%TA.AperFunction,SMDPad,CuDef*%
%ADD23RoundRect,0.087500X0.225000X-0.087500X0.225000X0.087500X-0.225000X0.087500X-0.225000X-0.087500X0*%
%TD*%
%TA.AperFunction,SMDPad,CuDef*%
%ADD24RoundRect,0.062500X0.350000X0.062500X-0.350000X0.062500X-0.350000X-0.062500X0.350000X-0.062500X0*%
%TD*%
%TA.AperFunction,SMDPad,CuDef*%
%ADD25RoundRect,0.062500X0.062500X0.350000X-0.062500X0.350000X-0.062500X-0.350000X0.062500X-0.350000X0*%
%TD*%
%TA.AperFunction,HeatsinkPad*%
%ADD26R,3.600000X3.600000*%
%TD*%
%TA.AperFunction,SMDPad,CuDef*%
%ADD27RoundRect,0.075000X-0.125000X-0.075000X0.125000X-0.075000X0.125000X0.075000X-0.125000X0.075000X0*%
%TD*%
%TA.AperFunction,Conductor*%
%ADD28C,0.200000*%
%TD*%
G04 APERTURE END LIST*
D10*
%TO.P,C11,1*%
%TO.N,Net-(U1-DCC)*%
X144800000Y-62866310D03*
%TO.P,C11,2*%
%TO.N,GND*%
X144800000Y-62366310D03*
%TD*%
%TO.P,C9,1*%
%TO.N,Net-(U1-DCC)*%
X143300000Y-65341310D03*
%TO.P,C9,2*%
%TO.N,GND*%
X143300000Y-64841310D03*
%TD*%
D11*
%TO.P,U3,1,GND*%
%TO.N,GND*%
X139250000Y-57376310D03*
%TO.P,U3,2,EN*%
%TO.N,Net-(BT1-+)*%
X138300000Y-57376310D03*
%TO.P,U3,3,Vin*%
X137350000Y-57376310D03*
%TO.P,U3,4,Vout*%
%TO.N,Net-(U1-DCC)*%
X137350000Y-60056310D03*
%TO.P,U3,5,Vsense*%
X138300000Y-60056310D03*
%TO.P,U3,6,NC*%
%TO.N,unconnected-(U3-NC-Pad6)*%
X139250000Y-60056310D03*
D12*
%TO.P,U3,7,GND*%
%TO.N,GND*%
X138300000Y-58716310D03*
%TD*%
D13*
%TO.P,C8,1*%
%TO.N,GND*%
X144800000Y-65091310D03*
%TO.P,C8,2*%
%TO.N,Net-(U1-DCC)*%
X144800000Y-65591310D03*
%TD*%
D14*
%TO.P,BT1,1,+*%
%TO.N,Net-(BT1-+)*%
X130000000Y-59291310D03*
%TO.P,BT1,2,-*%
%TO.N,GND*%
X132000000Y-59291310D03*
D15*
%TO.P,BT1,MP*%
%TO.N,N/C*%
X127650000Y-65041310D03*
X134350000Y-65041310D03*
%TD*%
D10*
%TO.P,C15,1*%
%TO.N,Net-(U1-DCC)*%
X144300000Y-59366310D03*
%TO.P,C15,2*%
%TO.N,GND*%
X144300000Y-58866310D03*
%TD*%
%TO.P,C16,1*%
%TO.N,Net-(U1-DCC)*%
X144800000Y-68091310D03*
%TO.P,C16,2*%
%TO.N,GND*%
X144800000Y-67591310D03*
%TD*%
D16*
%TO.P,R1,1*%
%TO.N,Net-(U1-P0.18{slash}~{RESET})*%
X139700000Y-67601310D03*
%TO.P,R1,2*%
%TO.N,Net-(U1-DCC)*%
X139700000Y-66581310D03*
%TD*%
D17*
%TO.P,C5,1*%
%TO.N,GND*%
X141200000Y-58466310D03*
%TO.P,C5,2*%
%TO.N,Net-(U1-DCC)*%
X141200000Y-60016310D03*
%TD*%
D18*
%TO.P,Y1,1,1*%
%TO.N,Net-(U1-XC2)*%
X131300000Y-72541310D03*
%TO.P,Y1,2,2*%
%TO.N,Net-(U1-XC1)*%
X131300000Y-70341310D03*
%TO.P,Y1,3,3*%
%TO.N,GND*%
X129600000Y-70341310D03*
%TO.P,Y1,4,4*%
X129600000Y-72541310D03*
%TD*%
D13*
%TO.P,C10,1*%
%TO.N,GND*%
X141300000Y-64091310D03*
%TO.P,C10,2*%
%TO.N,Net-(U1-DCC)*%
X141300000Y-64591310D03*
%TD*%
D10*
%TO.P,C12,1*%
%TO.N,Net-(U1-DCC)*%
X143250000Y-62416310D03*
%TO.P,C12,2*%
%TO.N,GND*%
X143250000Y-61916310D03*
%TD*%
%TO.P,C14,1*%
%TO.N,Net-(U1-DCC)*%
X142800000Y-58866310D03*
%TO.P,C14,2*%
%TO.N,GND*%
X142800000Y-58366310D03*
%TD*%
D19*
%TO.P,R2,1*%
%TO.N,Net-(U1-DCC)*%
X142012500Y-70181310D03*
%TO.P,R2,2*%
%TO.N,Net-(U1-AIN3{slash}P0.05)*%
X142012500Y-71201310D03*
%TD*%
D10*
%TO.P,C7,1*%
%TO.N,Net-(U1-DCC)*%
X141800000Y-67091310D03*
%TO.P,C7,2*%
%TO.N,GND*%
X141800000Y-66591310D03*
%TD*%
D20*
%TO.P,C3,1*%
%TO.N,GND*%
X138350000Y-62091310D03*
%TO.P,C3,2*%
%TO.N,Net-(BT1-+)*%
X136800000Y-62091310D03*
%TD*%
D21*
%TO.P,C2,1*%
%TO.N,Net-(U1-XC2)*%
X130775000Y-73841310D03*
%TO.P,C2,2*%
%TO.N,GND*%
X130275000Y-73841310D03*
%TD*%
D20*
%TO.P,C4,1*%
%TO.N,GND*%
X138375000Y-66241310D03*
%TO.P,C4,2*%
%TO.N,Net-(BT1-+)*%
X136825000Y-66241310D03*
%TD*%
D10*
%TO.P,C13,1*%
%TO.N,Net-(U1-DCC)*%
X141800000Y-62366310D03*
%TO.P,C13,2*%
%TO.N,GND*%
X141800000Y-61866310D03*
%TD*%
D22*
%TO.P,U2,1,SDO/SA0*%
%TO.N,unconnected-(U2-SDO{slash}SA0-Pad1)*%
X143450000Y-72553810D03*
%TO.P,U2,2,SDX*%
%TO.N,unconnected-(U2-SDX-Pad2)*%
X143950000Y-72553810D03*
%TO.P,U2,3,SCX*%
%TO.N,Net-(U1-DCC)*%
X144450000Y-72553810D03*
%TO.P,U2,4,INT1*%
%TO.N,unconnected-(U2-INT1-Pad4)*%
X144950000Y-72553810D03*
D23*
%TO.P,U2,5,VDDIO*%
%TO.N,GND*%
X145112500Y-71891310D03*
%TO.P,U2,6,GND*%
X145112500Y-71391310D03*
%TO.P,U2,7,GND*%
%TO.N,Net-(U1-DCC)*%
X145112500Y-70891310D03*
D22*
%TO.P,U2,8,VDD*%
X144950000Y-70228810D03*
%TO.P,U2,9,INT2*%
%TO.N,unconnected-(U2-INT2-Pad9)*%
X144450000Y-70228810D03*
%TO.P,U2,10,NC*%
%TO.N,unconnected-(U2-NC-Pad10)*%
X143950000Y-70228810D03*
%TO.P,U2,11,NC*%
%TO.N,unconnected-(U2-NC-Pad11)*%
X143450000Y-70228810D03*
D23*
%TO.P,U2,12,CS*%
%TO.N,N/C*%
X143287500Y-70891310D03*
%TO.P,U2,13,SCL*%
%TO.N,Net-(U1-AIN3{slash}P0.05)*%
X143287500Y-71391310D03*
%TO.P,U2,14,SDA*%
%TO.N,Net-(U1-AIN2{slash}P0.04)*%
X143287500Y-71891310D03*
%TD*%
D16*
%TO.P,R3,1*%
%TO.N,Net-(U1-DCC)*%
X142012500Y-73151310D03*
%TO.P,R3,2*%
%TO.N,Net-(U1-AIN2{slash}P0.04)*%
X142012500Y-72131310D03*
%TD*%
D24*
%TO.P,U1,1,DEC1*%
%TO.N,Net-(U1-DCC)*%
X140675000Y-73041310D03*
%TO.P,U1,2,XL1/P0.00*%
%TO.N,unconnected-(U1-XL1{slash}P0.00-Pad2)*%
X140675000Y-72641310D03*
%TO.P,U1,3,XL2/P0.01*%
%TO.N,unconnected-(U1-XL2{slash}P0.01-Pad3)*%
X140675000Y-72241310D03*
%TO.P,U1,4,AIN2/P0.04*%
%TO.N,Net-(U1-AIN2{slash}P0.04)*%
X140675000Y-71841310D03*
%TO.P,U1,5,AIN3/P0.05*%
%TO.N,Net-(U1-AIN3{slash}P0.05)*%
X140675000Y-71441310D03*
%TO.P,U1,6,P0.06*%
%TO.N,unconnected-(U1-P0.06-Pad6)*%
X140675000Y-71041310D03*
%TO.P,U1,7,P0.07*%
%TO.N,unconnected-(U1-P0.07-Pad7)*%
X140675000Y-70641310D03*
%TO.P,U1,8,VDD*%
%TO.N,Net-(U1-DCC)*%
X140675000Y-70241310D03*
%TO.P,U1,9,VDDH*%
%TO.N,unconnected-(U1-VDDH-Pad9)*%
X140675000Y-69841310D03*
%TO.P,U1,10,VBUS*%
%TO.N,unconnected-(U1-VBUS-Pad10)*%
X140675000Y-69441310D03*
D25*
%TO.P,U1,11,DECUSB*%
%TO.N,Net-(U1-DCC)*%
X140037500Y-68803810D03*
%TO.P,U1,12,D-*%
%TO.N,unconnected-(U1-D--Pad12)*%
X139637500Y-68803810D03*
%TO.P,U1,13,D+*%
%TO.N,unconnected-(U1-D+-Pad13)*%
X139237500Y-68803810D03*
%TO.P,U1,14,P0.14*%
%TO.N,unconnected-(U1-P0.14-Pad14)*%
X138837500Y-68803810D03*
%TO.P,U1,15,P0.15*%
%TO.N,unconnected-(U1-P0.15-Pad15)*%
X138437500Y-68803810D03*
%TO.P,U1,16,P0.18/~{RESET}*%
%TO.N,Net-(U1-P0.18{slash}~{RESET})*%
X138037500Y-68803810D03*
%TO.P,U1,17,P0.20*%
%TO.N,unconnected-(U1-P0.20-Pad17)*%
X137637500Y-68803810D03*
%TO.P,U1,18,VDD*%
%TO.N,Net-(U1-DCC)*%
X137237500Y-68803810D03*
%TO.P,U1,19,SWDIO*%
%TO.N,unconnected-(U1-SWDIO-Pad19)*%
X136837500Y-68803810D03*
%TO.P,U1,20,SWDCLK*%
%TO.N,unconnected-(U1-SWDCLK-Pad20)*%
X136437500Y-68803810D03*
D24*
%TO.P,U1,21,DEC5*%
%TO.N,Net-(U1-DCC)*%
X135800000Y-69441310D03*
%TO.P,U1,22,P0.16*%
%TO.N,unconnected-(U1-P0.16-Pad22)*%
X135800000Y-69841310D03*
%TO.P,U1,23,P0.17*%
%TO.N,unconnected-(U1-P0.17-Pad23)*%
X135800000Y-70241310D03*
%TO.P,U1,24,ANT*%
%TO.N,unconnected-(U1-ANT-Pad24)*%
X135800000Y-70641310D03*
%TO.P,U1,25,VSS_PA*%
%TO.N,Net-(U1-DCC)*%
X135800000Y-71041310D03*
%TO.P,U1,26,DEC6*%
X135800000Y-71441310D03*
%TO.P,U1,27,DEC3*%
%TO.N,Net-(U1-XC1)*%
X135800000Y-71841310D03*
%TO.P,U1,28,XC1*%
%TO.N,GND*%
X135800000Y-72241310D03*
%TO.P,U1,29,XC2*%
%TO.N,Net-(U1-XC2)*%
X135800000Y-72641310D03*
%TO.P,U1,30,VDD*%
%TO.N,Net-(U1-DCC)*%
X135800000Y-73041310D03*
D25*
%TO.P,U1,31,P0.08*%
%TO.N,unconnected-(U1-P0.08-Pad31)*%
X136437500Y-73678810D03*
%TO.P,U1,32,P0.29*%
%TO.N,unconnected-(U1-P0.29-Pad32)*%
X136837500Y-73678810D03*
%TO.P,U1,33,P0.30*%
%TO.N,unconnected-(U1-P0.30-Pad33)*%
X137237500Y-73678810D03*
%TO.P,U1,34,P0.28*%
%TO.N,unconnected-(U1-P0.28-Pad34)*%
X137637500Y-73678810D03*
%TO.P,U1,35,AIN1/P0.03*%
%TO.N,unconnected-(U1-AIN1{slash}P0.03-Pad35)*%
X138037500Y-73678810D03*
%TO.P,U1,36,AIN0/P0.02*%
%TO.N,unconnected-(U1-AIN0{slash}P0.02-Pad36)*%
X138437500Y-73678810D03*
%TO.P,U1,37,VSS*%
%TO.N,GND*%
X138837500Y-73678810D03*
%TO.P,U1,38,DEC4*%
%TO.N,Net-(U1-DCC)*%
X139237500Y-73678810D03*
%TO.P,U1,39,DCC*%
X139637500Y-73678810D03*
%TO.P,U1,40,VDD*%
X140037500Y-73678810D03*
D26*
%TO.P,U1,41,VSS*%
%TO.N,GND*%
X138237500Y-71241310D03*
%TD*%
D27*
%TO.P,C1,1*%
%TO.N,GND*%
X130050000Y-68841310D03*
%TO.P,C1,2*%
%TO.N,Net-(U1-XC1)*%
X130550000Y-68841310D03*
%TD*%
D13*
%TO.P,C6,1*%
%TO.N,GND*%
X143300000Y-67341310D03*
%TO.P,C6,2*%
%TO.N,Net-(U1-DCC)*%
X143300000Y-67841310D03*
%TD*%
D28*
%TO.N,Net-(U1-XC1)*%
X133800000Y-70341310D02*
X131300000Y-70341310D01*
X130550000Y-69591310D02*
X131300000Y-70341310D01*
X135800000Y-71841310D02*
X135300000Y-71841310D01*
X130550000Y-68841310D02*
X130550000Y-69591310D01*
X135300000Y-71841310D02*
X133800000Y-70341310D01*
%TO.N,GND*%
X135800000Y-72241310D02*
X135215122Y-72241310D01*
X144800000Y-65091310D02*
X145050000Y-65091310D01*
X139250000Y-57376310D02*
X140110000Y-57376310D01*
X144800000Y-67591310D02*
X144549000Y-67340310D01*
X144549000Y-64840310D02*
X143300000Y-64840310D01*
X129656262Y-61342310D02*
X129299000Y-60985048D01*
X132000000Y-59291310D02*
X132000000Y-61041310D01*
X136000000Y-66500000D02*
X136417310Y-66917310D01*
X145726000Y-71142158D02*
X145726000Y-67267310D01*
X141301000Y-58365310D02*
X143799000Y-58365310D01*
X146000000Y-75000000D02*
X146000000Y-72778810D01*
X132000000Y-59291310D02*
X132575000Y-58716310D01*
X142549000Y-66590310D02*
X141800000Y-66590310D01*
X134614122Y-71640310D02*
X130501000Y-71640310D01*
X129600000Y-72541310D02*
X129600000Y-70341310D01*
X139250000Y-57766310D02*
X138300000Y-58716310D01*
X136417310Y-66917310D02*
X137699000Y-66917310D01*
X138375000Y-66241310D02*
X138375000Y-61716310D01*
X129831000Y-56860310D02*
X138734000Y-56860310D01*
X129600000Y-70341310D02*
X129600000Y-69291310D01*
X138804601Y-71617310D02*
X138817101Y-71617310D01*
X144775000Y-58866310D02*
X144800000Y-58841310D01*
X145476848Y-71391310D02*
X145726000Y-71142158D01*
X135800000Y-72241310D02*
X137237500Y-72241310D01*
X138734000Y-56860310D02*
X139250000Y-57376310D01*
X143300000Y-64841310D02*
X142549000Y-64090310D01*
X129656262Y-61342310D02*
X131699000Y-61342310D01*
X129600000Y-69291310D02*
X130050000Y-68841310D01*
X139720513Y-75000000D02*
X146000000Y-75000000D01*
X142549000Y-64090310D02*
X141300000Y-64090310D01*
X144800000Y-65091310D02*
X144549000Y-64840310D01*
X144549000Y-67340310D02*
X143300000Y-67340310D01*
X131699000Y-61342310D02*
X132000000Y-61041310D01*
X137237500Y-72241310D02*
X138237500Y-71241310D01*
X135975000Y-58716310D02*
X136000000Y-58691310D01*
X132575000Y-58716310D02*
X135975000Y-58716310D01*
X129299000Y-60985048D02*
X129299000Y-57392310D01*
X145300000Y-66841310D02*
X145300000Y-67091310D01*
X145300000Y-64841310D02*
X145300000Y-66841310D01*
X145726000Y-67267310D02*
X145300000Y-66841310D01*
X130275000Y-73216310D02*
X129600000Y-72541310D01*
X145112500Y-71391310D02*
X145476848Y-71391310D01*
X145300000Y-67091310D02*
X144800000Y-67591310D01*
X138837500Y-74116987D02*
X139720513Y-75000000D01*
X136000000Y-58691310D02*
X136000000Y-66500000D01*
X143300000Y-67341310D02*
X142549000Y-66590310D01*
X141200000Y-58466310D02*
X141301000Y-58365310D01*
X144300000Y-61866310D02*
X144800000Y-62366310D01*
X145033824Y-62366310D02*
X144800000Y-62366310D01*
X144300000Y-58866310D02*
X144775000Y-58866310D01*
X141800000Y-61866310D02*
X144300000Y-61866310D01*
X138861500Y-71915310D02*
X138861500Y-74017309D01*
X139250000Y-57376310D02*
X139250000Y-57766310D01*
X138187500Y-71241310D02*
X138861500Y-71915310D01*
X140110000Y-57376310D02*
X141200000Y-58466310D01*
X130275000Y-73841310D02*
X130275000Y-73216310D01*
X137699000Y-66917310D02*
X138375000Y-66241310D01*
X138837500Y-73678810D02*
X138837500Y-74116987D01*
X145300000Y-62632486D02*
X145033824Y-62366310D01*
X130501000Y-71640310D02*
X129600000Y-72541310D01*
X146000000Y-72778810D02*
X145112500Y-71891310D01*
X135215122Y-72241310D02*
X134614122Y-71640310D01*
X145112500Y-71891310D02*
X145112500Y-71391310D01*
X145050000Y-65091310D02*
X145300000Y-64841310D01*
X144800000Y-58841310D02*
X144800000Y-62366310D01*
X145300000Y-64841310D02*
X145300000Y-62632486D01*
X129299000Y-57392310D02*
X129831000Y-56860310D01*
X143799000Y-58365310D02*
X144300000Y-58866310D01*
%TO.N,Net-(U1-DCC)*%
X144800000Y-68091310D02*
X143550000Y-68091310D01*
X143701000Y-62867310D02*
X144800000Y-62867310D01*
X138315000Y-60056310D02*
X138300000Y-60056310D01*
X144950000Y-70728810D02*
X145112500Y-70891310D01*
X141851000Y-62417310D02*
X143250000Y-62417310D01*
X143142345Y-69357655D02*
X143500000Y-69715310D01*
X139700000Y-66581310D02*
X139700000Y-64341310D01*
X132613122Y-68654432D02*
X131800000Y-67841310D01*
X143500000Y-69715310D02*
X144659426Y-69715310D01*
X137350000Y-60056310D02*
X138300000Y-60056310D01*
X135800000Y-71441310D02*
X135800000Y-71041310D01*
X143300000Y-67841310D02*
X142550000Y-67841310D01*
X139700000Y-66581310D02*
X140221000Y-67102310D01*
X135750000Y-68654432D02*
X136515122Y-67889310D01*
X139700000Y-61441310D02*
X138315000Y-60056310D01*
X143550000Y-68091310D02*
X143300000Y-67841310D01*
X140232000Y-67091310D02*
X140221000Y-67102310D01*
X128300000Y-75341310D02*
X131300000Y-75341310D01*
X132813122Y-73828188D02*
X135800000Y-73828188D01*
X142318690Y-70181310D02*
X143142345Y-69357655D01*
X135800000Y-73041310D02*
X135800000Y-73828188D01*
X141379501Y-70181310D02*
X141319501Y-70241310D01*
X137187500Y-68416932D02*
X137715122Y-67889310D01*
X141078188Y-68500000D02*
X142500000Y-68500000D01*
X141125000Y-60016310D02*
X141200000Y-60016310D01*
X135750000Y-68654432D02*
X132613122Y-68654432D01*
X144450000Y-72918158D02*
X144450000Y-72553810D01*
X136515122Y-67889310D02*
X137715122Y-67889310D01*
X137187500Y-68416932D02*
X137187500Y-68803810D01*
X141319501Y-70241310D02*
X140675000Y-70241310D01*
X139700000Y-61441310D02*
X141125000Y-60016310D01*
X135186500Y-69642311D02*
X135387501Y-69441310D01*
X139700000Y-64341310D02*
X139700000Y-61841310D01*
X141800000Y-62366310D02*
X141851000Y-62417310D01*
X131300000Y-75341310D02*
X132813122Y-73828188D01*
X142550000Y-67841310D02*
X141800000Y-67091310D01*
X142028500Y-73167310D02*
X144200848Y-73167310D01*
X140735000Y-73151310D02*
X140625000Y-73041310D01*
X142800000Y-58866310D02*
X143301000Y-59367310D01*
X142012500Y-70181310D02*
X142318690Y-70181310D01*
X141300000Y-64591310D02*
X142051000Y-65342310D01*
X139700000Y-61841310D02*
X139700000Y-61441310D01*
X140625000Y-73041310D02*
X139987500Y-73678810D01*
X139987500Y-73678810D02*
X139187500Y-73678810D01*
X140221000Y-68570310D02*
X139987500Y-68803810D01*
X135387501Y-69441310D02*
X135800000Y-69441310D01*
X139179000Y-67102310D02*
X139700000Y-66581310D01*
X135750000Y-69441310D02*
X135750000Y-68654432D01*
X144450000Y-71189462D02*
X144748152Y-70891310D01*
X139179000Y-67879228D02*
X139179000Y-67102310D01*
X140774378Y-68803810D02*
X141078188Y-68500000D01*
X135186500Y-70840309D02*
X135186500Y-69642311D01*
X142012500Y-73151310D02*
X142028500Y-73167310D01*
X144200848Y-73167310D02*
X144450000Y-72918158D01*
X139951000Y-64592310D02*
X141300000Y-64592310D01*
X144748152Y-70891310D02*
X145112500Y-70891310D01*
X142012500Y-73151310D02*
X140735000Y-73151310D01*
X131800000Y-67841310D02*
X128300000Y-67841310D01*
X141379501Y-70181310D02*
X142012500Y-70181310D01*
X141200000Y-60016310D02*
X142350000Y-58866310D01*
X135387501Y-71041310D02*
X135186500Y-70840309D01*
X139700000Y-64341310D02*
X139951000Y-64592310D01*
X142350000Y-58866310D02*
X142800000Y-58866310D01*
X144950000Y-70005884D02*
X144950000Y-70228810D01*
X142500000Y-68500000D02*
X142500000Y-68715310D01*
X135800000Y-71041310D02*
X135387501Y-71041310D01*
X139189082Y-67889310D02*
X139179000Y-67879228D01*
X139987500Y-68803810D02*
X140774378Y-68803810D01*
X141800000Y-67091310D02*
X140232000Y-67091310D01*
X144659426Y-69715310D02*
X144950000Y-70005884D01*
X137715122Y-67889310D02*
X139189082Y-67889310D01*
X144450000Y-72553810D02*
X144450000Y-71189462D01*
X139700000Y-61841310D02*
X140226000Y-62367310D01*
X143250000Y-62416310D02*
X143701000Y-62867310D01*
X140221000Y-67102310D02*
X140221000Y-68570310D01*
X144950000Y-70228810D02*
X144950000Y-70728810D01*
X142051000Y-65342310D02*
X143300000Y-65342310D01*
X143550000Y-65591310D02*
X144800000Y-65591310D01*
X128300000Y-67841310D02*
X128300000Y-75341310D01*
X143301000Y-59367310D02*
X144300000Y-59367310D01*
X142500000Y-68715310D02*
X143142345Y-69357655D01*
X143300000Y-65341310D02*
X143550000Y-65591310D01*
X140226000Y-62367310D02*
X141800000Y-62367310D01*
%TO.N,Net-(U1-AIN3{slash}P0.05)*%
X142012500Y-71201310D02*
X141772500Y-71441310D01*
X142202500Y-71391310D02*
X142012500Y-71201310D01*
X141772500Y-71441310D02*
X140625000Y-71441310D01*
X143287500Y-71391310D02*
X142202500Y-71391310D01*
%TO.N,Net-(U1-P0.18{slash}~{RESET})*%
X139700000Y-67990310D02*
X139700000Y-67601310D01*
X138188501Y-68190310D02*
X139500000Y-68190310D01*
X137987500Y-68391311D02*
X138188501Y-68190310D01*
X139500000Y-68190310D02*
X139700000Y-67990310D01*
X137987500Y-68803810D02*
X137987500Y-68391311D01*
%TO.N,Net-(U1-AIN2{slash}P0.04)*%
X142252500Y-71891310D02*
X142012500Y-72131310D01*
X143287500Y-71891310D02*
X142252500Y-71891310D01*
X141722500Y-71841310D02*
X140625000Y-71841310D01*
X142012500Y-72131310D02*
X141722500Y-71841310D01*
%TO.N,Net-(U1-XC2)*%
X131300000Y-72541310D02*
X131400000Y-72641310D01*
X130775000Y-73841310D02*
X130775000Y-73066310D01*
X130775000Y-73066310D02*
X131300000Y-72541310D01*
X131400000Y-72641310D02*
X135750000Y-72641310D01*
%TO.N,Net-(BT1-+)*%
X130000000Y-58896572D02*
X131556262Y-57340310D01*
X136800000Y-57664310D02*
X137088000Y-57376310D01*
X136825000Y-62116310D02*
X136800000Y-62091310D01*
X136825000Y-66241310D02*
X136825000Y-62116310D01*
X136800000Y-62091310D02*
X136800000Y-57664310D01*
X130000000Y-59291310D02*
X130000000Y-58896572D01*
X131556262Y-57340310D02*
X137052000Y-57340310D01*
X137052000Y-57340310D02*
X137088000Y-57376310D01*
X138300000Y-57376310D02*
X137350000Y-57376310D01*
X137088000Y-57376310D02*
X137350000Y-57376310D01*
%TD*%
M02*
