%TF.GenerationSoftware,KiCad,Pcbnew,9.0.4*%
%TF.CreationDate,2025-09-06T18:01:58-07:00*%
%TF.ProjectId,Putting_Device,50757474-696e-4675-9f44-65766963652e,rev?*%
%TF.SameCoordinates,Original*%
%TF.FileFunction,Legend,Top*%
%TF.FilePolarity,Positive*%
%FSLAX46Y46*%
G04 Gerber Fmt 4.6, Leading zero omitted, Abs format (unit mm)*
G04 Created by KiCad (PCBNEW 9.0.4) date 2025-09-06 18:01:58*
%MOMM*%
%LPD*%
G01*
G04 APERTURE LIST*
%ADD10C,0.037500*%
%ADD11C,0.062500*%
%ADD12C,0.150000*%
%ADD13C,0.075000*%
%ADD14C,0.120000*%
G04 APERTURE END LIST*
D10*
X132084194Y-75967454D02*
X132084194Y-75717454D01*
X132203242Y-75967454D02*
X132203242Y-75717454D01*
X132203242Y-75717454D02*
X132286576Y-75896026D01*
X132286576Y-75896026D02*
X132369909Y-75717454D01*
X132369909Y-75717454D02*
X132369909Y-75967454D01*
X132488956Y-75717454D02*
X132488956Y-75919835D01*
X132488956Y-75919835D02*
X132500861Y-75943645D01*
X132500861Y-75943645D02*
X132512766Y-75955550D01*
X132512766Y-75955550D02*
X132536575Y-75967454D01*
X132536575Y-75967454D02*
X132584194Y-75967454D01*
X132584194Y-75967454D02*
X132608004Y-75955550D01*
X132608004Y-75955550D02*
X132619909Y-75943645D01*
X132619909Y-75943645D02*
X132631813Y-75919835D01*
X132631813Y-75919835D02*
X132631813Y-75717454D01*
X132941337Y-75967454D02*
X132941337Y-75717454D01*
X132941337Y-75717454D02*
X133036575Y-75717454D01*
X133036575Y-75717454D02*
X133060385Y-75729359D01*
X133060385Y-75729359D02*
X133072290Y-75741264D01*
X133072290Y-75741264D02*
X133084194Y-75765073D01*
X133084194Y-75765073D02*
X133084194Y-75800788D01*
X133084194Y-75800788D02*
X133072290Y-75824597D01*
X133072290Y-75824597D02*
X133060385Y-75836502D01*
X133060385Y-75836502D02*
X133036575Y-75848407D01*
X133036575Y-75848407D02*
X132941337Y-75848407D01*
X133191337Y-75717454D02*
X133191337Y-75919835D01*
X133191337Y-75919835D02*
X133203242Y-75943645D01*
X133203242Y-75943645D02*
X133215147Y-75955550D01*
X133215147Y-75955550D02*
X133238956Y-75967454D01*
X133238956Y-75967454D02*
X133286575Y-75967454D01*
X133286575Y-75967454D02*
X133310385Y-75955550D01*
X133310385Y-75955550D02*
X133322290Y-75943645D01*
X133322290Y-75943645D02*
X133334194Y-75919835D01*
X133334194Y-75919835D02*
X133334194Y-75717454D01*
X133417528Y-75717454D02*
X133560385Y-75717454D01*
X133488957Y-75967454D02*
X133488957Y-75717454D01*
X133608004Y-75717454D02*
X133750861Y-75717454D01*
X133679433Y-75967454D02*
X133679433Y-75717454D01*
X133834194Y-75967454D02*
X133834194Y-75717454D01*
X133953242Y-75967454D02*
X133953242Y-75717454D01*
X133953242Y-75717454D02*
X134096099Y-75967454D01*
X134096099Y-75967454D02*
X134096099Y-75717454D01*
X134346100Y-75729359D02*
X134322290Y-75717454D01*
X134322290Y-75717454D02*
X134286576Y-75717454D01*
X134286576Y-75717454D02*
X134250862Y-75729359D01*
X134250862Y-75729359D02*
X134227052Y-75753169D01*
X134227052Y-75753169D02*
X134215147Y-75776978D01*
X134215147Y-75776978D02*
X134203243Y-75824597D01*
X134203243Y-75824597D02*
X134203243Y-75860311D01*
X134203243Y-75860311D02*
X134215147Y-75907930D01*
X134215147Y-75907930D02*
X134227052Y-75931740D01*
X134227052Y-75931740D02*
X134250862Y-75955550D01*
X134250862Y-75955550D02*
X134286576Y-75967454D01*
X134286576Y-75967454D02*
X134310385Y-75967454D01*
X134310385Y-75967454D02*
X134346100Y-75955550D01*
X134346100Y-75955550D02*
X134358004Y-75943645D01*
X134358004Y-75943645D02*
X134358004Y-75860311D01*
X134358004Y-75860311D02*
X134310385Y-75860311D01*
X134643719Y-75896026D02*
X134762766Y-75896026D01*
X134619909Y-75967454D02*
X134703242Y-75717454D01*
X134703242Y-75717454D02*
X134786576Y-75967454D01*
X134869909Y-75967454D02*
X134869909Y-75717454D01*
X134869909Y-75717454D02*
X135012766Y-75967454D01*
X135012766Y-75967454D02*
X135012766Y-75717454D01*
X135119910Y-75896026D02*
X135238957Y-75896026D01*
X135096100Y-75967454D02*
X135179433Y-75717454D01*
X135179433Y-75717454D02*
X135262767Y-75967454D01*
X135465148Y-75967454D02*
X135346100Y-75967454D01*
X135346100Y-75967454D02*
X135346100Y-75717454D01*
X135596100Y-75848407D02*
X135596100Y-75967454D01*
X135512767Y-75717454D02*
X135596100Y-75848407D01*
X135596100Y-75848407D02*
X135679434Y-75717454D01*
X135750863Y-75955550D02*
X135786577Y-75967454D01*
X135786577Y-75967454D02*
X135846101Y-75967454D01*
X135846101Y-75967454D02*
X135869910Y-75955550D01*
X135869910Y-75955550D02*
X135881815Y-75943645D01*
X135881815Y-75943645D02*
X135893720Y-75919835D01*
X135893720Y-75919835D02*
X135893720Y-75896026D01*
X135893720Y-75896026D02*
X135881815Y-75872216D01*
X135881815Y-75872216D02*
X135869910Y-75860311D01*
X135869910Y-75860311D02*
X135846101Y-75848407D01*
X135846101Y-75848407D02*
X135798482Y-75836502D01*
X135798482Y-75836502D02*
X135774672Y-75824597D01*
X135774672Y-75824597D02*
X135762767Y-75812692D01*
X135762767Y-75812692D02*
X135750863Y-75788883D01*
X135750863Y-75788883D02*
X135750863Y-75765073D01*
X135750863Y-75765073D02*
X135762767Y-75741264D01*
X135762767Y-75741264D02*
X135774672Y-75729359D01*
X135774672Y-75729359D02*
X135798482Y-75717454D01*
X135798482Y-75717454D02*
X135858005Y-75717454D01*
X135858005Y-75717454D02*
X135893720Y-75729359D01*
X136000862Y-75967454D02*
X136000862Y-75717454D01*
X136108006Y-75955550D02*
X136143720Y-75967454D01*
X136143720Y-75967454D02*
X136203244Y-75967454D01*
X136203244Y-75967454D02*
X136227053Y-75955550D01*
X136227053Y-75955550D02*
X136238958Y-75943645D01*
X136238958Y-75943645D02*
X136250863Y-75919835D01*
X136250863Y-75919835D02*
X136250863Y-75896026D01*
X136250863Y-75896026D02*
X136238958Y-75872216D01*
X136238958Y-75872216D02*
X136227053Y-75860311D01*
X136227053Y-75860311D02*
X136203244Y-75848407D01*
X136203244Y-75848407D02*
X136155625Y-75836502D01*
X136155625Y-75836502D02*
X136131815Y-75824597D01*
X136131815Y-75824597D02*
X136119910Y-75812692D01*
X136119910Y-75812692D02*
X136108006Y-75788883D01*
X136108006Y-75788883D02*
X136108006Y-75765073D01*
X136108006Y-75765073D02*
X136119910Y-75741264D01*
X136119910Y-75741264D02*
X136131815Y-75729359D01*
X136131815Y-75729359D02*
X136155625Y-75717454D01*
X136155625Y-75717454D02*
X136215148Y-75717454D01*
X136215148Y-75717454D02*
X136250863Y-75729359D01*
X136548481Y-75967454D02*
X136548481Y-75717454D01*
X136548481Y-75717454D02*
X136643719Y-75717454D01*
X136643719Y-75717454D02*
X136667529Y-75729359D01*
X136667529Y-75729359D02*
X136679434Y-75741264D01*
X136679434Y-75741264D02*
X136691338Y-75765073D01*
X136691338Y-75765073D02*
X136691338Y-75800788D01*
X136691338Y-75800788D02*
X136679434Y-75824597D01*
X136679434Y-75824597D02*
X136667529Y-75836502D01*
X136667529Y-75836502D02*
X136643719Y-75848407D01*
X136643719Y-75848407D02*
X136548481Y-75848407D01*
X136941338Y-75943645D02*
X136929434Y-75955550D01*
X136929434Y-75955550D02*
X136893719Y-75967454D01*
X136893719Y-75967454D02*
X136869910Y-75967454D01*
X136869910Y-75967454D02*
X136834196Y-75955550D01*
X136834196Y-75955550D02*
X136810386Y-75931740D01*
X136810386Y-75931740D02*
X136798481Y-75907930D01*
X136798481Y-75907930D02*
X136786577Y-75860311D01*
X136786577Y-75860311D02*
X136786577Y-75824597D01*
X136786577Y-75824597D02*
X136798481Y-75776978D01*
X136798481Y-75776978D02*
X136810386Y-75753169D01*
X136810386Y-75753169D02*
X136834196Y-75729359D01*
X136834196Y-75729359D02*
X136869910Y-75717454D01*
X136869910Y-75717454D02*
X136893719Y-75717454D01*
X136893719Y-75717454D02*
X136929434Y-75729359D01*
X136929434Y-75729359D02*
X136941338Y-75741264D01*
X137131815Y-75836502D02*
X137167529Y-75848407D01*
X137167529Y-75848407D02*
X137179434Y-75860311D01*
X137179434Y-75860311D02*
X137191338Y-75884121D01*
X137191338Y-75884121D02*
X137191338Y-75919835D01*
X137191338Y-75919835D02*
X137179434Y-75943645D01*
X137179434Y-75943645D02*
X137167529Y-75955550D01*
X137167529Y-75955550D02*
X137143719Y-75967454D01*
X137143719Y-75967454D02*
X137048481Y-75967454D01*
X137048481Y-75967454D02*
X137048481Y-75717454D01*
X137048481Y-75717454D02*
X137131815Y-75717454D01*
X137131815Y-75717454D02*
X137155624Y-75729359D01*
X137155624Y-75729359D02*
X137167529Y-75741264D01*
X137167529Y-75741264D02*
X137179434Y-75765073D01*
X137179434Y-75765073D02*
X137179434Y-75788883D01*
X137179434Y-75788883D02*
X137167529Y-75812692D01*
X137167529Y-75812692D02*
X137155624Y-75824597D01*
X137155624Y-75824597D02*
X137131815Y-75836502D01*
X137131815Y-75836502D02*
X137048481Y-75836502D01*
X137453243Y-75717454D02*
X137536576Y-75967454D01*
X137536576Y-75967454D02*
X137619910Y-75717454D01*
X137750862Y-75717454D02*
X137774672Y-75717454D01*
X137774672Y-75717454D02*
X137798481Y-75729359D01*
X137798481Y-75729359D02*
X137810386Y-75741264D01*
X137810386Y-75741264D02*
X137822291Y-75765073D01*
X137822291Y-75765073D02*
X137834196Y-75812692D01*
X137834196Y-75812692D02*
X137834196Y-75872216D01*
X137834196Y-75872216D02*
X137822291Y-75919835D01*
X137822291Y-75919835D02*
X137810386Y-75943645D01*
X137810386Y-75943645D02*
X137798481Y-75955550D01*
X137798481Y-75955550D02*
X137774672Y-75967454D01*
X137774672Y-75967454D02*
X137750862Y-75967454D01*
X137750862Y-75967454D02*
X137727053Y-75955550D01*
X137727053Y-75955550D02*
X137715148Y-75943645D01*
X137715148Y-75943645D02*
X137703243Y-75919835D01*
X137703243Y-75919835D02*
X137691339Y-75872216D01*
X137691339Y-75872216D02*
X137691339Y-75812692D01*
X137691339Y-75812692D02*
X137703243Y-75765073D01*
X137703243Y-75765073D02*
X137715148Y-75741264D01*
X137715148Y-75741264D02*
X137727053Y-75729359D01*
X137727053Y-75729359D02*
X137750862Y-75717454D01*
X138191338Y-76050788D02*
X138191338Y-75693645D01*
X138560385Y-75717454D02*
X138560385Y-75919835D01*
X138560385Y-75919835D02*
X138572290Y-75943645D01*
X138572290Y-75943645D02*
X138584195Y-75955550D01*
X138584195Y-75955550D02*
X138608004Y-75967454D01*
X138608004Y-75967454D02*
X138655623Y-75967454D01*
X138655623Y-75967454D02*
X138679433Y-75955550D01*
X138679433Y-75955550D02*
X138691338Y-75943645D01*
X138691338Y-75943645D02*
X138703242Y-75919835D01*
X138703242Y-75919835D02*
X138703242Y-75717454D01*
X138798481Y-75717454D02*
X138858005Y-75967454D01*
X138858005Y-75967454D02*
X138905624Y-75788883D01*
X138905624Y-75788883D02*
X138953243Y-75967454D01*
X138953243Y-75967454D02*
X139012767Y-75717454D01*
X139429433Y-75729359D02*
X139405623Y-75717454D01*
X139405623Y-75717454D02*
X139369909Y-75717454D01*
X139369909Y-75717454D02*
X139334195Y-75729359D01*
X139334195Y-75729359D02*
X139310385Y-75753169D01*
X139310385Y-75753169D02*
X139298480Y-75776978D01*
X139298480Y-75776978D02*
X139286576Y-75824597D01*
X139286576Y-75824597D02*
X139286576Y-75860311D01*
X139286576Y-75860311D02*
X139298480Y-75907930D01*
X139298480Y-75907930D02*
X139310385Y-75931740D01*
X139310385Y-75931740D02*
X139334195Y-75955550D01*
X139334195Y-75955550D02*
X139369909Y-75967454D01*
X139369909Y-75967454D02*
X139393718Y-75967454D01*
X139393718Y-75967454D02*
X139429433Y-75955550D01*
X139429433Y-75955550D02*
X139441337Y-75943645D01*
X139441337Y-75943645D02*
X139441337Y-75860311D01*
X139441337Y-75860311D02*
X139393718Y-75860311D01*
X139596099Y-75717454D02*
X139643718Y-75717454D01*
X139643718Y-75717454D02*
X139667528Y-75729359D01*
X139667528Y-75729359D02*
X139691337Y-75753169D01*
X139691337Y-75753169D02*
X139703242Y-75800788D01*
X139703242Y-75800788D02*
X139703242Y-75884121D01*
X139703242Y-75884121D02*
X139691337Y-75931740D01*
X139691337Y-75931740D02*
X139667528Y-75955550D01*
X139667528Y-75955550D02*
X139643718Y-75967454D01*
X139643718Y-75967454D02*
X139596099Y-75967454D01*
X139596099Y-75967454D02*
X139572290Y-75955550D01*
X139572290Y-75955550D02*
X139548480Y-75931740D01*
X139548480Y-75931740D02*
X139536576Y-75884121D01*
X139536576Y-75884121D02*
X139536576Y-75800788D01*
X139536576Y-75800788D02*
X139548480Y-75753169D01*
X139548480Y-75753169D02*
X139572290Y-75729359D01*
X139572290Y-75729359D02*
X139596099Y-75717454D01*
X139929433Y-75967454D02*
X139810385Y-75967454D01*
X139810385Y-75967454D02*
X139810385Y-75717454D01*
X140096100Y-75836502D02*
X140012766Y-75836502D01*
X140012766Y-75967454D02*
X140012766Y-75717454D01*
X140012766Y-75717454D02*
X140131814Y-75717454D01*
X140417528Y-75836502D02*
X140500862Y-75836502D01*
X140536576Y-75967454D02*
X140417528Y-75967454D01*
X140417528Y-75967454D02*
X140417528Y-75717454D01*
X140417528Y-75717454D02*
X140536576Y-75717454D01*
X140643718Y-75967454D02*
X140643718Y-75717454D01*
X140643718Y-75717454D02*
X140786575Y-75967454D01*
X140786575Y-75967454D02*
X140786575Y-75717454D01*
X141036576Y-75729359D02*
X141012766Y-75717454D01*
X141012766Y-75717454D02*
X140977052Y-75717454D01*
X140977052Y-75717454D02*
X140941338Y-75729359D01*
X140941338Y-75729359D02*
X140917528Y-75753169D01*
X140917528Y-75753169D02*
X140905623Y-75776978D01*
X140905623Y-75776978D02*
X140893719Y-75824597D01*
X140893719Y-75824597D02*
X140893719Y-75860311D01*
X140893719Y-75860311D02*
X140905623Y-75907930D01*
X140905623Y-75907930D02*
X140917528Y-75931740D01*
X140917528Y-75931740D02*
X140941338Y-75955550D01*
X140941338Y-75955550D02*
X140977052Y-75967454D01*
X140977052Y-75967454D02*
X141000861Y-75967454D01*
X141000861Y-75967454D02*
X141036576Y-75955550D01*
X141036576Y-75955550D02*
X141048480Y-75943645D01*
X141048480Y-75943645D02*
X141048480Y-75860311D01*
X141048480Y-75860311D02*
X141000861Y-75860311D01*
X141155623Y-75967454D02*
X141155623Y-75717454D01*
X141274671Y-75967454D02*
X141274671Y-75717454D01*
X141274671Y-75717454D02*
X141417528Y-75967454D01*
X141417528Y-75967454D02*
X141417528Y-75717454D01*
X141536576Y-75836502D02*
X141619910Y-75836502D01*
X141655624Y-75967454D02*
X141536576Y-75967454D01*
X141536576Y-75967454D02*
X141536576Y-75717454D01*
X141536576Y-75717454D02*
X141655624Y-75717454D01*
X141762766Y-75836502D02*
X141846100Y-75836502D01*
X141881814Y-75967454D02*
X141762766Y-75967454D01*
X141762766Y-75967454D02*
X141762766Y-75717454D01*
X141762766Y-75717454D02*
X141881814Y-75717454D01*
X142131813Y-75967454D02*
X142048480Y-75848407D01*
X141988956Y-75967454D02*
X141988956Y-75717454D01*
X141988956Y-75717454D02*
X142084194Y-75717454D01*
X142084194Y-75717454D02*
X142108004Y-75729359D01*
X142108004Y-75729359D02*
X142119909Y-75741264D01*
X142119909Y-75741264D02*
X142131813Y-75765073D01*
X142131813Y-75765073D02*
X142131813Y-75800788D01*
X142131813Y-75800788D02*
X142119909Y-75824597D01*
X142119909Y-75824597D02*
X142108004Y-75836502D01*
X142108004Y-75836502D02*
X142084194Y-75848407D01*
X142084194Y-75848407D02*
X141988956Y-75848407D01*
X142238956Y-75967454D02*
X142238956Y-75717454D01*
X142358004Y-75967454D02*
X142358004Y-75717454D01*
X142358004Y-75717454D02*
X142500861Y-75967454D01*
X142500861Y-75967454D02*
X142500861Y-75717454D01*
X142750862Y-75729359D02*
X142727052Y-75717454D01*
X142727052Y-75717454D02*
X142691338Y-75717454D01*
X142691338Y-75717454D02*
X142655624Y-75729359D01*
X142655624Y-75729359D02*
X142631814Y-75753169D01*
X142631814Y-75753169D02*
X142619909Y-75776978D01*
X142619909Y-75776978D02*
X142608005Y-75824597D01*
X142608005Y-75824597D02*
X142608005Y-75860311D01*
X142608005Y-75860311D02*
X142619909Y-75907930D01*
X142619909Y-75907930D02*
X142631814Y-75931740D01*
X142631814Y-75931740D02*
X142655624Y-75955550D01*
X142655624Y-75955550D02*
X142691338Y-75967454D01*
X142691338Y-75967454D02*
X142715147Y-75967454D01*
X142715147Y-75967454D02*
X142750862Y-75955550D01*
X142750862Y-75955550D02*
X142762766Y-75943645D01*
X142762766Y-75943645D02*
X142762766Y-75860311D01*
X142762766Y-75860311D02*
X142715147Y-75860311D01*
X143119909Y-76050788D02*
X143119909Y-75693645D01*
X143560385Y-75717454D02*
X143560385Y-75896026D01*
X143560385Y-75896026D02*
X143548480Y-75931740D01*
X143548480Y-75931740D02*
X143524671Y-75955550D01*
X143524671Y-75955550D02*
X143488956Y-75967454D01*
X143488956Y-75967454D02*
X143465147Y-75967454D01*
X143679432Y-75836502D02*
X143762766Y-75836502D01*
X143798480Y-75967454D02*
X143679432Y-75967454D01*
X143679432Y-75967454D02*
X143679432Y-75717454D01*
X143679432Y-75717454D02*
X143798480Y-75717454D01*
X143905622Y-75967454D02*
X143905622Y-75717454D01*
X143905622Y-75717454D02*
X144048479Y-75967454D01*
X144048479Y-75967454D02*
X144048479Y-75717454D01*
X144155623Y-75955550D02*
X144191337Y-75967454D01*
X144191337Y-75967454D02*
X144250861Y-75967454D01*
X144250861Y-75967454D02*
X144274670Y-75955550D01*
X144274670Y-75955550D02*
X144286575Y-75943645D01*
X144286575Y-75943645D02*
X144298480Y-75919835D01*
X144298480Y-75919835D02*
X144298480Y-75896026D01*
X144298480Y-75896026D02*
X144286575Y-75872216D01*
X144286575Y-75872216D02*
X144274670Y-75860311D01*
X144274670Y-75860311D02*
X144250861Y-75848407D01*
X144250861Y-75848407D02*
X144203242Y-75836502D01*
X144203242Y-75836502D02*
X144179432Y-75824597D01*
X144179432Y-75824597D02*
X144167527Y-75812692D01*
X144167527Y-75812692D02*
X144155623Y-75788883D01*
X144155623Y-75788883D02*
X144155623Y-75765073D01*
X144155623Y-75765073D02*
X144167527Y-75741264D01*
X144167527Y-75741264D02*
X144179432Y-75729359D01*
X144179432Y-75729359D02*
X144203242Y-75717454D01*
X144203242Y-75717454D02*
X144262765Y-75717454D01*
X144262765Y-75717454D02*
X144298480Y-75729359D01*
X144405622Y-75836502D02*
X144488956Y-75836502D01*
X144524670Y-75967454D02*
X144405622Y-75967454D01*
X144405622Y-75967454D02*
X144405622Y-75717454D01*
X144405622Y-75717454D02*
X144524670Y-75717454D01*
X144631812Y-75967454D02*
X144631812Y-75717454D01*
X144631812Y-75717454D02*
X144774669Y-75967454D01*
X144774669Y-75967454D02*
X144774669Y-75717454D01*
X145084193Y-75967454D02*
X145084193Y-75717454D01*
X145227050Y-75967454D02*
X145119908Y-75824597D01*
X145227050Y-75717454D02*
X145084193Y-75860311D01*
X145322289Y-75896026D02*
X145441336Y-75896026D01*
X145298479Y-75967454D02*
X145381812Y-75717454D01*
X145381812Y-75717454D02*
X145465146Y-75967454D01*
X145667527Y-75967454D02*
X145548479Y-75967454D01*
X145548479Y-75967454D02*
X145548479Y-75717454D01*
X145738956Y-75896026D02*
X145858003Y-75896026D01*
X145715146Y-75967454D02*
X145798479Y-75717454D01*
X145798479Y-75717454D02*
X145881813Y-75967454D01*
X146084194Y-75967454D02*
X145965146Y-75967454D01*
X145965146Y-75967454D02*
X145965146Y-75717454D01*
X130483333Y-74589895D02*
X130471429Y-74601800D01*
X130471429Y-74601800D02*
X130435714Y-74613704D01*
X130435714Y-74613704D02*
X130411905Y-74613704D01*
X130411905Y-74613704D02*
X130376191Y-74601800D01*
X130376191Y-74601800D02*
X130352381Y-74577990D01*
X130352381Y-74577990D02*
X130340476Y-74554180D01*
X130340476Y-74554180D02*
X130328572Y-74506561D01*
X130328572Y-74506561D02*
X130328572Y-74470847D01*
X130328572Y-74470847D02*
X130340476Y-74423228D01*
X130340476Y-74423228D02*
X130352381Y-74399419D01*
X130352381Y-74399419D02*
X130376191Y-74375609D01*
X130376191Y-74375609D02*
X130411905Y-74363704D01*
X130411905Y-74363704D02*
X130435714Y-74363704D01*
X130435714Y-74363704D02*
X130471429Y-74375609D01*
X130471429Y-74375609D02*
X130483333Y-74387514D01*
X130578572Y-74387514D02*
X130590476Y-74375609D01*
X130590476Y-74375609D02*
X130614286Y-74363704D01*
X130614286Y-74363704D02*
X130673810Y-74363704D01*
X130673810Y-74363704D02*
X130697619Y-74375609D01*
X130697619Y-74375609D02*
X130709524Y-74387514D01*
X130709524Y-74387514D02*
X130721429Y-74411323D01*
X130721429Y-74411323D02*
X130721429Y-74435133D01*
X130721429Y-74435133D02*
X130709524Y-74470847D01*
X130709524Y-74470847D02*
X130566667Y-74613704D01*
X130566667Y-74613704D02*
X130721429Y-74613704D01*
X145339285Y-62089895D02*
X145327381Y-62101800D01*
X145327381Y-62101800D02*
X145291666Y-62113704D01*
X145291666Y-62113704D02*
X145267857Y-62113704D01*
X145267857Y-62113704D02*
X145232143Y-62101800D01*
X145232143Y-62101800D02*
X145208333Y-62077990D01*
X145208333Y-62077990D02*
X145196428Y-62054180D01*
X145196428Y-62054180D02*
X145184524Y-62006561D01*
X145184524Y-62006561D02*
X145184524Y-61970847D01*
X145184524Y-61970847D02*
X145196428Y-61923228D01*
X145196428Y-61923228D02*
X145208333Y-61899419D01*
X145208333Y-61899419D02*
X145232143Y-61875609D01*
X145232143Y-61875609D02*
X145267857Y-61863704D01*
X145267857Y-61863704D02*
X145291666Y-61863704D01*
X145291666Y-61863704D02*
X145327381Y-61875609D01*
X145327381Y-61875609D02*
X145339285Y-61887514D01*
X145577381Y-62113704D02*
X145434524Y-62113704D01*
X145505952Y-62113704D02*
X145505952Y-61863704D01*
X145505952Y-61863704D02*
X145482143Y-61899419D01*
X145482143Y-61899419D02*
X145458333Y-61923228D01*
X145458333Y-61923228D02*
X145434524Y-61935133D01*
X145815476Y-62113704D02*
X145672619Y-62113704D01*
X145744047Y-62113704D02*
X145744047Y-61863704D01*
X145744047Y-61863704D02*
X145720238Y-61899419D01*
X145720238Y-61899419D02*
X145696428Y-61923228D01*
X145696428Y-61923228D02*
X145672619Y-61935133D01*
X144339285Y-67089895D02*
X144327381Y-67101800D01*
X144327381Y-67101800D02*
X144291666Y-67113704D01*
X144291666Y-67113704D02*
X144267857Y-67113704D01*
X144267857Y-67113704D02*
X144232143Y-67101800D01*
X144232143Y-67101800D02*
X144208333Y-67077990D01*
X144208333Y-67077990D02*
X144196428Y-67054180D01*
X144196428Y-67054180D02*
X144184524Y-67006561D01*
X144184524Y-67006561D02*
X144184524Y-66970847D01*
X144184524Y-66970847D02*
X144196428Y-66923228D01*
X144196428Y-66923228D02*
X144208333Y-66899419D01*
X144208333Y-66899419D02*
X144232143Y-66875609D01*
X144232143Y-66875609D02*
X144267857Y-66863704D01*
X144267857Y-66863704D02*
X144291666Y-66863704D01*
X144291666Y-66863704D02*
X144327381Y-66875609D01*
X144327381Y-66875609D02*
X144339285Y-66887514D01*
X144577381Y-67113704D02*
X144434524Y-67113704D01*
X144505952Y-67113704D02*
X144505952Y-66863704D01*
X144505952Y-66863704D02*
X144482143Y-66899419D01*
X144482143Y-66899419D02*
X144458333Y-66923228D01*
X144458333Y-66923228D02*
X144434524Y-66935133D01*
X144791666Y-66863704D02*
X144744047Y-66863704D01*
X144744047Y-66863704D02*
X144720238Y-66875609D01*
X144720238Y-66875609D02*
X144708333Y-66887514D01*
X144708333Y-66887514D02*
X144684523Y-66923228D01*
X144684523Y-66923228D02*
X144672619Y-66970847D01*
X144672619Y-66970847D02*
X144672619Y-67066085D01*
X144672619Y-67066085D02*
X144684523Y-67089895D01*
X144684523Y-67089895D02*
X144696428Y-67101800D01*
X144696428Y-67101800D02*
X144720238Y-67113704D01*
X144720238Y-67113704D02*
X144767857Y-67113704D01*
X144767857Y-67113704D02*
X144791666Y-67101800D01*
X144791666Y-67101800D02*
X144803571Y-67089895D01*
X144803571Y-67089895D02*
X144815476Y-67066085D01*
X144815476Y-67066085D02*
X144815476Y-67006561D01*
X144815476Y-67006561D02*
X144803571Y-66982752D01*
X144803571Y-66982752D02*
X144791666Y-66970847D01*
X144791666Y-66970847D02*
X144767857Y-66958942D01*
X144767857Y-66958942D02*
X144720238Y-66958942D01*
X144720238Y-66958942D02*
X144696428Y-66970847D01*
X144696428Y-66970847D02*
X144684523Y-66982752D01*
X144684523Y-66982752D02*
X144672619Y-67006561D01*
X144339285Y-58089895D02*
X144327381Y-58101800D01*
X144327381Y-58101800D02*
X144291666Y-58113704D01*
X144291666Y-58113704D02*
X144267857Y-58113704D01*
X144267857Y-58113704D02*
X144232143Y-58101800D01*
X144232143Y-58101800D02*
X144208333Y-58077990D01*
X144208333Y-58077990D02*
X144196428Y-58054180D01*
X144196428Y-58054180D02*
X144184524Y-58006561D01*
X144184524Y-58006561D02*
X144184524Y-57970847D01*
X144184524Y-57970847D02*
X144196428Y-57923228D01*
X144196428Y-57923228D02*
X144208333Y-57899419D01*
X144208333Y-57899419D02*
X144232143Y-57875609D01*
X144232143Y-57875609D02*
X144267857Y-57863704D01*
X144267857Y-57863704D02*
X144291666Y-57863704D01*
X144291666Y-57863704D02*
X144327381Y-57875609D01*
X144327381Y-57875609D02*
X144339285Y-57887514D01*
X144577381Y-58113704D02*
X144434524Y-58113704D01*
X144505952Y-58113704D02*
X144505952Y-57863704D01*
X144505952Y-57863704D02*
X144482143Y-57899419D01*
X144482143Y-57899419D02*
X144458333Y-57923228D01*
X144458333Y-57923228D02*
X144434524Y-57935133D01*
X144803571Y-57863704D02*
X144684523Y-57863704D01*
X144684523Y-57863704D02*
X144672619Y-57982752D01*
X144672619Y-57982752D02*
X144684523Y-57970847D01*
X144684523Y-57970847D02*
X144708333Y-57958942D01*
X144708333Y-57958942D02*
X144767857Y-57958942D01*
X144767857Y-57958942D02*
X144791666Y-57970847D01*
X144791666Y-57970847D02*
X144803571Y-57982752D01*
X144803571Y-57982752D02*
X144815476Y-58006561D01*
X144815476Y-58006561D02*
X144815476Y-58066085D01*
X144815476Y-58066085D02*
X144803571Y-58089895D01*
X144803571Y-58089895D02*
X144791666Y-58101800D01*
X144791666Y-58101800D02*
X144767857Y-58113704D01*
X144767857Y-58113704D02*
X144708333Y-58113704D01*
X144708333Y-58113704D02*
X144684523Y-58101800D01*
X144684523Y-58101800D02*
X144672619Y-58089895D01*
X142339285Y-57589895D02*
X142327381Y-57601800D01*
X142327381Y-57601800D02*
X142291666Y-57613704D01*
X142291666Y-57613704D02*
X142267857Y-57613704D01*
X142267857Y-57613704D02*
X142232143Y-57601800D01*
X142232143Y-57601800D02*
X142208333Y-57577990D01*
X142208333Y-57577990D02*
X142196428Y-57554180D01*
X142196428Y-57554180D02*
X142184524Y-57506561D01*
X142184524Y-57506561D02*
X142184524Y-57470847D01*
X142184524Y-57470847D02*
X142196428Y-57423228D01*
X142196428Y-57423228D02*
X142208333Y-57399419D01*
X142208333Y-57399419D02*
X142232143Y-57375609D01*
X142232143Y-57375609D02*
X142267857Y-57363704D01*
X142267857Y-57363704D02*
X142291666Y-57363704D01*
X142291666Y-57363704D02*
X142327381Y-57375609D01*
X142327381Y-57375609D02*
X142339285Y-57387514D01*
X142577381Y-57613704D02*
X142434524Y-57613704D01*
X142505952Y-57613704D02*
X142505952Y-57363704D01*
X142505952Y-57363704D02*
X142482143Y-57399419D01*
X142482143Y-57399419D02*
X142458333Y-57423228D01*
X142458333Y-57423228D02*
X142434524Y-57435133D01*
X142791666Y-57447038D02*
X142791666Y-57613704D01*
X142732142Y-57351800D02*
X142672619Y-57530371D01*
X142672619Y-57530371D02*
X142827380Y-57530371D01*
X142839285Y-61089895D02*
X142827381Y-61101800D01*
X142827381Y-61101800D02*
X142791666Y-61113704D01*
X142791666Y-61113704D02*
X142767857Y-61113704D01*
X142767857Y-61113704D02*
X142732143Y-61101800D01*
X142732143Y-61101800D02*
X142708333Y-61077990D01*
X142708333Y-61077990D02*
X142696428Y-61054180D01*
X142696428Y-61054180D02*
X142684524Y-61006561D01*
X142684524Y-61006561D02*
X142684524Y-60970847D01*
X142684524Y-60970847D02*
X142696428Y-60923228D01*
X142696428Y-60923228D02*
X142708333Y-60899419D01*
X142708333Y-60899419D02*
X142732143Y-60875609D01*
X142732143Y-60875609D02*
X142767857Y-60863704D01*
X142767857Y-60863704D02*
X142791666Y-60863704D01*
X142791666Y-60863704D02*
X142827381Y-60875609D01*
X142827381Y-60875609D02*
X142839285Y-60887514D01*
X143077381Y-61113704D02*
X142934524Y-61113704D01*
X143005952Y-61113704D02*
X143005952Y-60863704D01*
X143005952Y-60863704D02*
X142982143Y-60899419D01*
X142982143Y-60899419D02*
X142958333Y-60923228D01*
X142958333Y-60923228D02*
X142934524Y-60935133D01*
X143172619Y-60887514D02*
X143184523Y-60875609D01*
X143184523Y-60875609D02*
X143208333Y-60863704D01*
X143208333Y-60863704D02*
X143267857Y-60863704D01*
X143267857Y-60863704D02*
X143291666Y-60875609D01*
X143291666Y-60875609D02*
X143303571Y-60887514D01*
X143303571Y-60887514D02*
X143315476Y-60911323D01*
X143315476Y-60911323D02*
X143315476Y-60935133D01*
X143315476Y-60935133D02*
X143303571Y-60970847D01*
X143303571Y-60970847D02*
X143160714Y-61113704D01*
X143160714Y-61113704D02*
X143315476Y-61113704D01*
X141958333Y-66089895D02*
X141946429Y-66101800D01*
X141946429Y-66101800D02*
X141910714Y-66113704D01*
X141910714Y-66113704D02*
X141886905Y-66113704D01*
X141886905Y-66113704D02*
X141851191Y-66101800D01*
X141851191Y-66101800D02*
X141827381Y-66077990D01*
X141827381Y-66077990D02*
X141815476Y-66054180D01*
X141815476Y-66054180D02*
X141803572Y-66006561D01*
X141803572Y-66006561D02*
X141803572Y-65970847D01*
X141803572Y-65970847D02*
X141815476Y-65923228D01*
X141815476Y-65923228D02*
X141827381Y-65899419D01*
X141827381Y-65899419D02*
X141851191Y-65875609D01*
X141851191Y-65875609D02*
X141886905Y-65863704D01*
X141886905Y-65863704D02*
X141910714Y-65863704D01*
X141910714Y-65863704D02*
X141946429Y-65875609D01*
X141946429Y-65875609D02*
X141958333Y-65887514D01*
X142041667Y-65863704D02*
X142208333Y-65863704D01*
X142208333Y-65863704D02*
X142101191Y-66113704D01*
X140339285Y-64089895D02*
X140327381Y-64101800D01*
X140327381Y-64101800D02*
X140291666Y-64113704D01*
X140291666Y-64113704D02*
X140267857Y-64113704D01*
X140267857Y-64113704D02*
X140232143Y-64101800D01*
X140232143Y-64101800D02*
X140208333Y-64077990D01*
X140208333Y-64077990D02*
X140196428Y-64054180D01*
X140196428Y-64054180D02*
X140184524Y-64006561D01*
X140184524Y-64006561D02*
X140184524Y-63970847D01*
X140184524Y-63970847D02*
X140196428Y-63923228D01*
X140196428Y-63923228D02*
X140208333Y-63899419D01*
X140208333Y-63899419D02*
X140232143Y-63875609D01*
X140232143Y-63875609D02*
X140267857Y-63863704D01*
X140267857Y-63863704D02*
X140291666Y-63863704D01*
X140291666Y-63863704D02*
X140327381Y-63875609D01*
X140327381Y-63875609D02*
X140339285Y-63887514D01*
X140577381Y-64113704D02*
X140434524Y-64113704D01*
X140505952Y-64113704D02*
X140505952Y-63863704D01*
X140505952Y-63863704D02*
X140482143Y-63899419D01*
X140482143Y-63899419D02*
X140458333Y-63923228D01*
X140458333Y-63923228D02*
X140434524Y-63935133D01*
X140732142Y-63863704D02*
X140755952Y-63863704D01*
X140755952Y-63863704D02*
X140779761Y-63875609D01*
X140779761Y-63875609D02*
X140791666Y-63887514D01*
X140791666Y-63887514D02*
X140803571Y-63911323D01*
X140803571Y-63911323D02*
X140815476Y-63958942D01*
X140815476Y-63958942D02*
X140815476Y-64018466D01*
X140815476Y-64018466D02*
X140803571Y-64066085D01*
X140803571Y-64066085D02*
X140791666Y-64089895D01*
X140791666Y-64089895D02*
X140779761Y-64101800D01*
X140779761Y-64101800D02*
X140755952Y-64113704D01*
X140755952Y-64113704D02*
X140732142Y-64113704D01*
X140732142Y-64113704D02*
X140708333Y-64101800D01*
X140708333Y-64101800D02*
X140696428Y-64089895D01*
X140696428Y-64089895D02*
X140684523Y-64066085D01*
X140684523Y-64066085D02*
X140672619Y-64018466D01*
X140672619Y-64018466D02*
X140672619Y-63958942D01*
X140672619Y-63958942D02*
X140684523Y-63911323D01*
X140684523Y-63911323D02*
X140696428Y-63887514D01*
X140696428Y-63887514D02*
X140708333Y-63875609D01*
X140708333Y-63875609D02*
X140732142Y-63863704D01*
X143458333Y-67089895D02*
X143446429Y-67101800D01*
X143446429Y-67101800D02*
X143410714Y-67113704D01*
X143410714Y-67113704D02*
X143386905Y-67113704D01*
X143386905Y-67113704D02*
X143351191Y-67101800D01*
X143351191Y-67101800D02*
X143327381Y-67077990D01*
X143327381Y-67077990D02*
X143315476Y-67054180D01*
X143315476Y-67054180D02*
X143303572Y-67006561D01*
X143303572Y-67006561D02*
X143303572Y-66970847D01*
X143303572Y-66970847D02*
X143315476Y-66923228D01*
X143315476Y-66923228D02*
X143327381Y-66899419D01*
X143327381Y-66899419D02*
X143351191Y-66875609D01*
X143351191Y-66875609D02*
X143386905Y-66863704D01*
X143386905Y-66863704D02*
X143410714Y-66863704D01*
X143410714Y-66863704D02*
X143446429Y-66875609D01*
X143446429Y-66875609D02*
X143458333Y-66887514D01*
X143672619Y-66863704D02*
X143625000Y-66863704D01*
X143625000Y-66863704D02*
X143601191Y-66875609D01*
X143601191Y-66875609D02*
X143589286Y-66887514D01*
X143589286Y-66887514D02*
X143565476Y-66923228D01*
X143565476Y-66923228D02*
X143553572Y-66970847D01*
X143553572Y-66970847D02*
X143553572Y-67066085D01*
X143553572Y-67066085D02*
X143565476Y-67089895D01*
X143565476Y-67089895D02*
X143577381Y-67101800D01*
X143577381Y-67101800D02*
X143601191Y-67113704D01*
X143601191Y-67113704D02*
X143648810Y-67113704D01*
X143648810Y-67113704D02*
X143672619Y-67101800D01*
X143672619Y-67101800D02*
X143684524Y-67089895D01*
X143684524Y-67089895D02*
X143696429Y-67066085D01*
X143696429Y-67066085D02*
X143696429Y-67006561D01*
X143696429Y-67006561D02*
X143684524Y-66982752D01*
X143684524Y-66982752D02*
X143672619Y-66970847D01*
X143672619Y-66970847D02*
X143648810Y-66958942D01*
X143648810Y-66958942D02*
X143601191Y-66958942D01*
X143601191Y-66958942D02*
X143577381Y-66970847D01*
X143577381Y-66970847D02*
X143565476Y-66982752D01*
X143565476Y-66982752D02*
X143553572Y-67006561D01*
X141839285Y-61089895D02*
X141827381Y-61101800D01*
X141827381Y-61101800D02*
X141791666Y-61113704D01*
X141791666Y-61113704D02*
X141767857Y-61113704D01*
X141767857Y-61113704D02*
X141732143Y-61101800D01*
X141732143Y-61101800D02*
X141708333Y-61077990D01*
X141708333Y-61077990D02*
X141696428Y-61054180D01*
X141696428Y-61054180D02*
X141684524Y-61006561D01*
X141684524Y-61006561D02*
X141684524Y-60970847D01*
X141684524Y-60970847D02*
X141696428Y-60923228D01*
X141696428Y-60923228D02*
X141708333Y-60899419D01*
X141708333Y-60899419D02*
X141732143Y-60875609D01*
X141732143Y-60875609D02*
X141767857Y-60863704D01*
X141767857Y-60863704D02*
X141791666Y-60863704D01*
X141791666Y-60863704D02*
X141827381Y-60875609D01*
X141827381Y-60875609D02*
X141839285Y-60887514D01*
X142077381Y-61113704D02*
X141934524Y-61113704D01*
X142005952Y-61113704D02*
X142005952Y-60863704D01*
X142005952Y-60863704D02*
X141982143Y-60899419D01*
X141982143Y-60899419D02*
X141958333Y-60923228D01*
X141958333Y-60923228D02*
X141934524Y-60935133D01*
X142160714Y-60863704D02*
X142315476Y-60863704D01*
X142315476Y-60863704D02*
X142232142Y-60958942D01*
X142232142Y-60958942D02*
X142267857Y-60958942D01*
X142267857Y-60958942D02*
X142291666Y-60970847D01*
X142291666Y-60970847D02*
X142303571Y-60982752D01*
X142303571Y-60982752D02*
X142315476Y-61006561D01*
X142315476Y-61006561D02*
X142315476Y-61066085D01*
X142315476Y-61066085D02*
X142303571Y-61089895D01*
X142303571Y-61089895D02*
X142291666Y-61101800D01*
X142291666Y-61101800D02*
X142267857Y-61113704D01*
X142267857Y-61113704D02*
X142196428Y-61113704D01*
X142196428Y-61113704D02*
X142172619Y-61101800D01*
X142172619Y-61101800D02*
X142160714Y-61089895D01*
X128958333Y-68589895D02*
X128946429Y-68601800D01*
X128946429Y-68601800D02*
X128910714Y-68613704D01*
X128910714Y-68613704D02*
X128886905Y-68613704D01*
X128886905Y-68613704D02*
X128851191Y-68601800D01*
X128851191Y-68601800D02*
X128827381Y-68577990D01*
X128827381Y-68577990D02*
X128815476Y-68554180D01*
X128815476Y-68554180D02*
X128803572Y-68506561D01*
X128803572Y-68506561D02*
X128803572Y-68470847D01*
X128803572Y-68470847D02*
X128815476Y-68423228D01*
X128815476Y-68423228D02*
X128827381Y-68399419D01*
X128827381Y-68399419D02*
X128851191Y-68375609D01*
X128851191Y-68375609D02*
X128886905Y-68363704D01*
X128886905Y-68363704D02*
X128910714Y-68363704D01*
X128910714Y-68363704D02*
X128946429Y-68375609D01*
X128946429Y-68375609D02*
X128958333Y-68387514D01*
X129196429Y-68613704D02*
X129053572Y-68613704D01*
X129125000Y-68613704D02*
X129125000Y-68363704D01*
X129125000Y-68363704D02*
X129101191Y-68399419D01*
X129101191Y-68399419D02*
X129077381Y-68423228D01*
X129077381Y-68423228D02*
X129053572Y-68435133D01*
X143458333Y-64089895D02*
X143446429Y-64101800D01*
X143446429Y-64101800D02*
X143410714Y-64113704D01*
X143410714Y-64113704D02*
X143386905Y-64113704D01*
X143386905Y-64113704D02*
X143351191Y-64101800D01*
X143351191Y-64101800D02*
X143327381Y-64077990D01*
X143327381Y-64077990D02*
X143315476Y-64054180D01*
X143315476Y-64054180D02*
X143303572Y-64006561D01*
X143303572Y-64006561D02*
X143303572Y-63970847D01*
X143303572Y-63970847D02*
X143315476Y-63923228D01*
X143315476Y-63923228D02*
X143327381Y-63899419D01*
X143327381Y-63899419D02*
X143351191Y-63875609D01*
X143351191Y-63875609D02*
X143386905Y-63863704D01*
X143386905Y-63863704D02*
X143410714Y-63863704D01*
X143410714Y-63863704D02*
X143446429Y-63875609D01*
X143446429Y-63875609D02*
X143458333Y-63887514D01*
X143577381Y-64113704D02*
X143625000Y-64113704D01*
X143625000Y-64113704D02*
X143648810Y-64101800D01*
X143648810Y-64101800D02*
X143660714Y-64089895D01*
X143660714Y-64089895D02*
X143684524Y-64054180D01*
X143684524Y-64054180D02*
X143696429Y-64006561D01*
X143696429Y-64006561D02*
X143696429Y-63911323D01*
X143696429Y-63911323D02*
X143684524Y-63887514D01*
X143684524Y-63887514D02*
X143672619Y-63875609D01*
X143672619Y-63875609D02*
X143648810Y-63863704D01*
X143648810Y-63863704D02*
X143601191Y-63863704D01*
X143601191Y-63863704D02*
X143577381Y-63875609D01*
X143577381Y-63875609D02*
X143565476Y-63887514D01*
X143565476Y-63887514D02*
X143553572Y-63911323D01*
X143553572Y-63911323D02*
X143553572Y-63970847D01*
X143553572Y-63970847D02*
X143565476Y-63994657D01*
X143565476Y-63994657D02*
X143577381Y-64006561D01*
X143577381Y-64006561D02*
X143601191Y-64018466D01*
X143601191Y-64018466D02*
X143648810Y-64018466D01*
X143648810Y-64018466D02*
X143672619Y-64006561D01*
X143672619Y-64006561D02*
X143684524Y-63994657D01*
X143684524Y-63994657D02*
X143696429Y-63970847D01*
D11*
X144458333Y-64588595D02*
X144446429Y-64600500D01*
X144446429Y-64600500D02*
X144410714Y-64612404D01*
X144410714Y-64612404D02*
X144386905Y-64612404D01*
X144386905Y-64612404D02*
X144351191Y-64600500D01*
X144351191Y-64600500D02*
X144327381Y-64576690D01*
X144327381Y-64576690D02*
X144315476Y-64552880D01*
X144315476Y-64552880D02*
X144303572Y-64505261D01*
X144303572Y-64505261D02*
X144303572Y-64469547D01*
X144303572Y-64469547D02*
X144315476Y-64421928D01*
X144315476Y-64421928D02*
X144327381Y-64398119D01*
X144327381Y-64398119D02*
X144351191Y-64374309D01*
X144351191Y-64374309D02*
X144386905Y-64362404D01*
X144386905Y-64362404D02*
X144410714Y-64362404D01*
X144410714Y-64362404D02*
X144446429Y-64374309D01*
X144446429Y-64374309D02*
X144458333Y-64386214D01*
X144601191Y-64469547D02*
X144577381Y-64457642D01*
X144577381Y-64457642D02*
X144565476Y-64445738D01*
X144565476Y-64445738D02*
X144553572Y-64421928D01*
X144553572Y-64421928D02*
X144553572Y-64410023D01*
X144553572Y-64410023D02*
X144565476Y-64386214D01*
X144565476Y-64386214D02*
X144577381Y-64374309D01*
X144577381Y-64374309D02*
X144601191Y-64362404D01*
X144601191Y-64362404D02*
X144648810Y-64362404D01*
X144648810Y-64362404D02*
X144672619Y-64374309D01*
X144672619Y-64374309D02*
X144684524Y-64386214D01*
X144684524Y-64386214D02*
X144696429Y-64410023D01*
X144696429Y-64410023D02*
X144696429Y-64421928D01*
X144696429Y-64421928D02*
X144684524Y-64445738D01*
X144684524Y-64445738D02*
X144672619Y-64457642D01*
X144672619Y-64457642D02*
X144648810Y-64469547D01*
X144648810Y-64469547D02*
X144601191Y-64469547D01*
X144601191Y-64469547D02*
X144577381Y-64481452D01*
X144577381Y-64481452D02*
X144565476Y-64493357D01*
X144565476Y-64493357D02*
X144553572Y-64517166D01*
X144553572Y-64517166D02*
X144553572Y-64564785D01*
X144553572Y-64564785D02*
X144565476Y-64588595D01*
X144565476Y-64588595D02*
X144577381Y-64600500D01*
X144577381Y-64600500D02*
X144601191Y-64612404D01*
X144601191Y-64612404D02*
X144648810Y-64612404D01*
X144648810Y-64612404D02*
X144672619Y-64600500D01*
X144672619Y-64600500D02*
X144684524Y-64588595D01*
X144684524Y-64588595D02*
X144696429Y-64564785D01*
X144696429Y-64564785D02*
X144696429Y-64517166D01*
X144696429Y-64517166D02*
X144684524Y-64493357D01*
X144684524Y-64493357D02*
X144672619Y-64481452D01*
X144672619Y-64481452D02*
X144648810Y-64469547D01*
D10*
X141958333Y-74113704D02*
X141875000Y-73994657D01*
X141815476Y-74113704D02*
X141815476Y-73863704D01*
X141815476Y-73863704D02*
X141910714Y-73863704D01*
X141910714Y-73863704D02*
X141934524Y-73875609D01*
X141934524Y-73875609D02*
X141946429Y-73887514D01*
X141946429Y-73887514D02*
X141958333Y-73911323D01*
X141958333Y-73911323D02*
X141958333Y-73947038D01*
X141958333Y-73947038D02*
X141946429Y-73970847D01*
X141946429Y-73970847D02*
X141934524Y-73982752D01*
X141934524Y-73982752D02*
X141910714Y-73994657D01*
X141910714Y-73994657D02*
X141815476Y-73994657D01*
X142041667Y-73863704D02*
X142196429Y-73863704D01*
X142196429Y-73863704D02*
X142113095Y-73958942D01*
X142113095Y-73958942D02*
X142148810Y-73958942D01*
X142148810Y-73958942D02*
X142172619Y-73970847D01*
X142172619Y-73970847D02*
X142184524Y-73982752D01*
X142184524Y-73982752D02*
X142196429Y-74006561D01*
X142196429Y-74006561D02*
X142196429Y-74066085D01*
X142196429Y-74066085D02*
X142184524Y-74089895D01*
X142184524Y-74089895D02*
X142172619Y-74101800D01*
X142172619Y-74101800D02*
X142148810Y-74113704D01*
X142148810Y-74113704D02*
X142077381Y-74113704D01*
X142077381Y-74113704D02*
X142053572Y-74101800D01*
X142053572Y-74101800D02*
X142041667Y-74089895D01*
D12*
X143454819Y-72153214D02*
X144264342Y-72153214D01*
X144264342Y-72153214D02*
X144359580Y-72105595D01*
X144359580Y-72105595D02*
X144407200Y-72057976D01*
X144407200Y-72057976D02*
X144454819Y-71962738D01*
X144454819Y-71962738D02*
X144454819Y-71772262D01*
X144454819Y-71772262D02*
X144407200Y-71677024D01*
X144407200Y-71677024D02*
X144359580Y-71629405D01*
X144359580Y-71629405D02*
X144264342Y-71581786D01*
X144264342Y-71581786D02*
X143454819Y-71581786D01*
X143550057Y-71153214D02*
X143502438Y-71105595D01*
X143502438Y-71105595D02*
X143454819Y-71010357D01*
X143454819Y-71010357D02*
X143454819Y-70772262D01*
X143454819Y-70772262D02*
X143502438Y-70677024D01*
X143502438Y-70677024D02*
X143550057Y-70629405D01*
X143550057Y-70629405D02*
X143645295Y-70581786D01*
X143645295Y-70581786D02*
X143740533Y-70581786D01*
X143740533Y-70581786D02*
X143883390Y-70629405D01*
X143883390Y-70629405D02*
X144454819Y-71200833D01*
X144454819Y-71200833D02*
X144454819Y-70581786D01*
D10*
X137698913Y-65089895D02*
X137687009Y-65101800D01*
X137687009Y-65101800D02*
X137651294Y-65113704D01*
X137651294Y-65113704D02*
X137627485Y-65113704D01*
X137627485Y-65113704D02*
X137591771Y-65101800D01*
X137591771Y-65101800D02*
X137567961Y-65077990D01*
X137567961Y-65077990D02*
X137556056Y-65054180D01*
X137556056Y-65054180D02*
X137544152Y-65006561D01*
X137544152Y-65006561D02*
X137544152Y-64970847D01*
X137544152Y-64970847D02*
X137556056Y-64923228D01*
X137556056Y-64923228D02*
X137567961Y-64899419D01*
X137567961Y-64899419D02*
X137591771Y-64875609D01*
X137591771Y-64875609D02*
X137627485Y-64863704D01*
X137627485Y-64863704D02*
X137651294Y-64863704D01*
X137651294Y-64863704D02*
X137687009Y-64875609D01*
X137687009Y-64875609D02*
X137698913Y-64887514D01*
X137913199Y-64947038D02*
X137913199Y-65113704D01*
X137853675Y-64851800D02*
X137794152Y-65030371D01*
X137794152Y-65030371D02*
X137948913Y-65030371D01*
D12*
X137475595Y-70954819D02*
X137475595Y-71764342D01*
X137475595Y-71764342D02*
X137523214Y-71859580D01*
X137523214Y-71859580D02*
X137570833Y-71907200D01*
X137570833Y-71907200D02*
X137666071Y-71954819D01*
X137666071Y-71954819D02*
X137856547Y-71954819D01*
X137856547Y-71954819D02*
X137951785Y-71907200D01*
X137951785Y-71907200D02*
X137999404Y-71859580D01*
X137999404Y-71859580D02*
X138047023Y-71764342D01*
X138047023Y-71764342D02*
X138047023Y-70954819D01*
X139047023Y-71954819D02*
X138475595Y-71954819D01*
X138761309Y-71954819D02*
X138761309Y-70954819D01*
X138761309Y-70954819D02*
X138666071Y-71097676D01*
X138666071Y-71097676D02*
X138570833Y-71192914D01*
X138570833Y-71192914D02*
X138475595Y-71240533D01*
D10*
X137533333Y-61089895D02*
X137521429Y-61101800D01*
X137521429Y-61101800D02*
X137485714Y-61113704D01*
X137485714Y-61113704D02*
X137461905Y-61113704D01*
X137461905Y-61113704D02*
X137426191Y-61101800D01*
X137426191Y-61101800D02*
X137402381Y-61077990D01*
X137402381Y-61077990D02*
X137390476Y-61054180D01*
X137390476Y-61054180D02*
X137378572Y-61006561D01*
X137378572Y-61006561D02*
X137378572Y-60970847D01*
X137378572Y-60970847D02*
X137390476Y-60923228D01*
X137390476Y-60923228D02*
X137402381Y-60899419D01*
X137402381Y-60899419D02*
X137426191Y-60875609D01*
X137426191Y-60875609D02*
X137461905Y-60863704D01*
X137461905Y-60863704D02*
X137485714Y-60863704D01*
X137485714Y-60863704D02*
X137521429Y-60875609D01*
X137521429Y-60875609D02*
X137533333Y-60887514D01*
X137616667Y-60863704D02*
X137771429Y-60863704D01*
X137771429Y-60863704D02*
X137688095Y-60958942D01*
X137688095Y-60958942D02*
X137723810Y-60958942D01*
X137723810Y-60958942D02*
X137747619Y-60970847D01*
X137747619Y-60970847D02*
X137759524Y-60982752D01*
X137759524Y-60982752D02*
X137771429Y-61006561D01*
X137771429Y-61006561D02*
X137771429Y-61066085D01*
X137771429Y-61066085D02*
X137759524Y-61089895D01*
X137759524Y-61089895D02*
X137747619Y-61101800D01*
X137747619Y-61101800D02*
X137723810Y-61113704D01*
X137723810Y-61113704D02*
X137652381Y-61113704D01*
X137652381Y-61113704D02*
X137628572Y-61101800D01*
X137628572Y-61101800D02*
X137616667Y-61089895D01*
X141958333Y-69113704D02*
X141875000Y-68994657D01*
X141815476Y-69113704D02*
X141815476Y-68863704D01*
X141815476Y-68863704D02*
X141910714Y-68863704D01*
X141910714Y-68863704D02*
X141934524Y-68875609D01*
X141934524Y-68875609D02*
X141946429Y-68887514D01*
X141946429Y-68887514D02*
X141958333Y-68911323D01*
X141958333Y-68911323D02*
X141958333Y-68947038D01*
X141958333Y-68947038D02*
X141946429Y-68970847D01*
X141946429Y-68970847D02*
X141934524Y-68982752D01*
X141934524Y-68982752D02*
X141910714Y-68994657D01*
X141910714Y-68994657D02*
X141815476Y-68994657D01*
X142053572Y-68887514D02*
X142065476Y-68875609D01*
X142065476Y-68875609D02*
X142089286Y-68863704D01*
X142089286Y-68863704D02*
X142148810Y-68863704D01*
X142148810Y-68863704D02*
X142172619Y-68875609D01*
X142172619Y-68875609D02*
X142184524Y-68887514D01*
X142184524Y-68887514D02*
X142196429Y-68911323D01*
X142196429Y-68911323D02*
X142196429Y-68935133D01*
X142196429Y-68935133D02*
X142184524Y-68970847D01*
X142184524Y-68970847D02*
X142041667Y-69113704D01*
X142041667Y-69113704D02*
X142196429Y-69113704D01*
X141458333Y-57589895D02*
X141446429Y-57601800D01*
X141446429Y-57601800D02*
X141410714Y-57613704D01*
X141410714Y-57613704D02*
X141386905Y-57613704D01*
X141386905Y-57613704D02*
X141351191Y-57601800D01*
X141351191Y-57601800D02*
X141327381Y-57577990D01*
X141327381Y-57577990D02*
X141315476Y-57554180D01*
X141315476Y-57554180D02*
X141303572Y-57506561D01*
X141303572Y-57506561D02*
X141303572Y-57470847D01*
X141303572Y-57470847D02*
X141315476Y-57423228D01*
X141315476Y-57423228D02*
X141327381Y-57399419D01*
X141327381Y-57399419D02*
X141351191Y-57375609D01*
X141351191Y-57375609D02*
X141386905Y-57363704D01*
X141386905Y-57363704D02*
X141410714Y-57363704D01*
X141410714Y-57363704D02*
X141446429Y-57375609D01*
X141446429Y-57375609D02*
X141458333Y-57387514D01*
X141684524Y-57363704D02*
X141565476Y-57363704D01*
X141565476Y-57363704D02*
X141553572Y-57482752D01*
X141553572Y-57482752D02*
X141565476Y-57470847D01*
X141565476Y-57470847D02*
X141589286Y-57458942D01*
X141589286Y-57458942D02*
X141648810Y-57458942D01*
X141648810Y-57458942D02*
X141672619Y-57470847D01*
X141672619Y-57470847D02*
X141684524Y-57482752D01*
X141684524Y-57482752D02*
X141696429Y-57506561D01*
X141696429Y-57506561D02*
X141696429Y-57566085D01*
X141696429Y-57566085D02*
X141684524Y-57589895D01*
X141684524Y-57589895D02*
X141672619Y-57601800D01*
X141672619Y-57601800D02*
X141648810Y-57613704D01*
X141648810Y-57613704D02*
X141589286Y-57613704D01*
X141589286Y-57613704D02*
X141565476Y-57601800D01*
X141565476Y-57601800D02*
X141553572Y-57589895D01*
X139958333Y-66113704D02*
X139875000Y-65994657D01*
X139815476Y-66113704D02*
X139815476Y-65863704D01*
X139815476Y-65863704D02*
X139910714Y-65863704D01*
X139910714Y-65863704D02*
X139934524Y-65875609D01*
X139934524Y-65875609D02*
X139946429Y-65887514D01*
X139946429Y-65887514D02*
X139958333Y-65911323D01*
X139958333Y-65911323D02*
X139958333Y-65947038D01*
X139958333Y-65947038D02*
X139946429Y-65970847D01*
X139946429Y-65970847D02*
X139934524Y-65982752D01*
X139934524Y-65982752D02*
X139910714Y-65994657D01*
X139910714Y-65994657D02*
X139815476Y-65994657D01*
X140196429Y-66113704D02*
X140053572Y-66113704D01*
X140125000Y-66113704D02*
X140125000Y-65863704D01*
X140125000Y-65863704D02*
X140101191Y-65899419D01*
X140101191Y-65899419D02*
X140077381Y-65923228D01*
X140077381Y-65923228D02*
X140053572Y-65935133D01*
D12*
X137954819Y-59478214D02*
X138764342Y-59478214D01*
X138764342Y-59478214D02*
X138859580Y-59430595D01*
X138859580Y-59430595D02*
X138907200Y-59382976D01*
X138907200Y-59382976D02*
X138954819Y-59287738D01*
X138954819Y-59287738D02*
X138954819Y-59097262D01*
X138954819Y-59097262D02*
X138907200Y-59002024D01*
X138907200Y-59002024D02*
X138859580Y-58954405D01*
X138859580Y-58954405D02*
X138764342Y-58906786D01*
X138764342Y-58906786D02*
X137954819Y-58906786D01*
X137954819Y-58525833D02*
X137954819Y-57906786D01*
X137954819Y-57906786D02*
X138335771Y-58240119D01*
X138335771Y-58240119D02*
X138335771Y-58097262D01*
X138335771Y-58097262D02*
X138383390Y-58002024D01*
X138383390Y-58002024D02*
X138431009Y-57954405D01*
X138431009Y-57954405D02*
X138526247Y-57906786D01*
X138526247Y-57906786D02*
X138764342Y-57906786D01*
X138764342Y-57906786D02*
X138859580Y-57954405D01*
X138859580Y-57954405D02*
X138907200Y-58002024D01*
X138907200Y-58002024D02*
X138954819Y-58097262D01*
X138954819Y-58097262D02*
X138954819Y-58382976D01*
X138954819Y-58382976D02*
X138907200Y-58478214D01*
X138907200Y-58478214D02*
X138859580Y-58525833D01*
X130214285Y-59431009D02*
X130357142Y-59478628D01*
X130357142Y-59478628D02*
X130404761Y-59526247D01*
X130404761Y-59526247D02*
X130452380Y-59621485D01*
X130452380Y-59621485D02*
X130452380Y-59764342D01*
X130452380Y-59764342D02*
X130404761Y-59859580D01*
X130404761Y-59859580D02*
X130357142Y-59907200D01*
X130357142Y-59907200D02*
X130261904Y-59954819D01*
X130261904Y-59954819D02*
X129880952Y-59954819D01*
X129880952Y-59954819D02*
X129880952Y-58954819D01*
X129880952Y-58954819D02*
X130214285Y-58954819D01*
X130214285Y-58954819D02*
X130309523Y-59002438D01*
X130309523Y-59002438D02*
X130357142Y-59050057D01*
X130357142Y-59050057D02*
X130404761Y-59145295D01*
X130404761Y-59145295D02*
X130404761Y-59240533D01*
X130404761Y-59240533D02*
X130357142Y-59335771D01*
X130357142Y-59335771D02*
X130309523Y-59383390D01*
X130309523Y-59383390D02*
X130214285Y-59431009D01*
X130214285Y-59431009D02*
X129880952Y-59431009D01*
X130738095Y-58954819D02*
X131309523Y-58954819D01*
X131023809Y-59954819D02*
X131023809Y-58954819D01*
X132166666Y-59954819D02*
X131595238Y-59954819D01*
X131880952Y-59954819D02*
X131880952Y-58954819D01*
X131880952Y-58954819D02*
X131785714Y-59097676D01*
X131785714Y-59097676D02*
X131690476Y-59192914D01*
X131690476Y-59192914D02*
X131595238Y-59240533D01*
D13*
X130489314Y-71738094D02*
X130727409Y-71738094D01*
X130227409Y-71904760D02*
X130489314Y-71738094D01*
X130489314Y-71738094D02*
X130227409Y-71571427D01*
X130727409Y-71142856D02*
X130727409Y-71428570D01*
X130727409Y-71285713D02*
X130227409Y-71285713D01*
X130227409Y-71285713D02*
X130298838Y-71333332D01*
X130298838Y-71333332D02*
X130346457Y-71380951D01*
X130346457Y-71380951D02*
X130370266Y-71428570D01*
D14*
%TO.C,R3*%
X141632500Y-72794951D02*
X141632500Y-72487669D01*
X142392500Y-72794951D02*
X142392500Y-72487669D01*
%TO.C,U2*%
X142840000Y-69781310D02*
X143015000Y-69781310D01*
X142840000Y-70456310D02*
X142840000Y-69781310D01*
X142840000Y-72326310D02*
X142840000Y-72701310D01*
X145560000Y-69781310D02*
X145385000Y-69781310D01*
X145560000Y-70456310D02*
X145560000Y-69781310D01*
X145560000Y-72326310D02*
X145560000Y-73001310D01*
X145560000Y-73001310D02*
X145385000Y-73001310D01*
X142840000Y-73001310D02*
X142650000Y-73141310D01*
X142650000Y-72861310D01*
X142840000Y-73001310D01*
G36*
X142840000Y-73001310D02*
G01*
X142650000Y-73141310D01*
X142650000Y-72861310D01*
X142840000Y-73001310D01*
G37*
%TO.C,C4*%
X137740580Y-65731310D02*
X137459420Y-65731310D01*
X137740580Y-66751310D02*
X137459420Y-66751310D01*
%TO.C,U1*%
X135627500Y-68631310D02*
X135627500Y-69056310D01*
X135627500Y-73851310D02*
X135627500Y-73426310D01*
X136052500Y-68631310D02*
X135627500Y-68631310D01*
X136052500Y-73851310D02*
X135627500Y-73851310D01*
X140422500Y-68631310D02*
X140847500Y-68631310D01*
X140422500Y-73851310D02*
X140547500Y-73851310D01*
X140847500Y-68631310D02*
X140847500Y-69056310D01*
X140847500Y-73426310D02*
X140847500Y-73611310D01*
X141087500Y-74181310D02*
X140607500Y-74181310D01*
X140847500Y-73851310D01*
X141087500Y-74181310D01*
G36*
X141087500Y-74181310D02*
G01*
X140607500Y-74181310D01*
X140847500Y-73851310D01*
X141087500Y-74181310D01*
G37*
%TO.C,C3*%
X137715580Y-61581310D02*
X137434420Y-61581310D01*
X137715580Y-62601310D02*
X137434420Y-62601310D01*
%TO.C,R2*%
X141632500Y-70537669D02*
X141632500Y-70844951D01*
X142392500Y-70537669D02*
X142392500Y-70844951D01*
%TO.C,C5*%
X140690000Y-59100730D02*
X140690000Y-59381890D01*
X141710000Y-59100730D02*
X141710000Y-59381890D01*
%TO.C,R1*%
X139320000Y-67244951D02*
X139320000Y-66937669D01*
X140080000Y-67244951D02*
X140080000Y-66937669D01*
%TO.C,U3*%
X136690000Y-57216310D02*
X136690000Y-60216310D01*
X139910000Y-57216310D02*
X139910000Y-60216310D01*
X140140000Y-56876310D02*
X139660000Y-56876310D01*
X139660000Y-56396310D01*
X140140000Y-56876310D01*
G36*
X140140000Y-56876310D02*
G01*
X139660000Y-56876310D01*
X139660000Y-56396310D01*
X140140000Y-56876310D01*
G37*
%TO.C,BT1*%
X126940000Y-58831310D02*
X127960000Y-58831310D01*
X126940000Y-63081310D02*
X126940000Y-58831310D01*
X127960000Y-58831310D02*
X127960000Y-60431310D01*
X127960000Y-60431310D02*
X129240000Y-60431310D01*
X128660000Y-66651310D02*
X133340000Y-66651310D01*
X129240000Y-60431310D02*
X129240000Y-57541310D01*
X134040000Y-58831310D02*
X134040000Y-60431310D01*
X134040000Y-60431310D02*
X132760000Y-60431310D01*
X135060000Y-58831310D02*
X134040000Y-58831310D01*
X135060000Y-63081310D02*
X135060000Y-58831310D01*
%TO.C,Y1*%
X128740000Y-73501310D02*
X132160000Y-73501310D01*
X132160000Y-73501310D02*
X132160000Y-69381310D01*
%TD*%
M02*
