%TF.GenerationSoftware,KiCad,Pcbnew,9.0.4*%
%TF.CreationDate,2025-09-06T17:54:45-07:00*%
%TF.ProjectId,Putting_Device,50757474-696e-4675-9f44-65766963652e,rev?*%
%TF.SameCoordinates,Original*%
%TF.FileFunction,Component,L1,Top*%
%TF.FilePolarity,Positive*%
%FSLAX46Y46*%
G04 Gerber Fmt 4.6, Leading zero omitted, Abs format (unit mm)*
G04 Created by KiCad (PCBNEW 9.0.4) date 2025-09-06 17:54:45*
%MOMM*%
%LPD*%
G01*
G04 APERTURE LIST*
%TA.AperFunction,ComponentMain*%
%ADD10C,0.300000*%
%TD*%
%TA.AperFunction,ComponentOutline,Courtyard*%
%ADD11C,0.100000*%
%TD*%
%TA.AperFunction,ComponentPin*%
%ADD12P,0.360000X4X0.000000*%
%TD*%
%TA.AperFunction,ComponentPin*%
%ADD13C,0.100000*%
%TD*%
G04 APERTURE END LIST*
D10*
%TO.C,C2*%
%TO.CFtp,C_01005_0402Metric*%
%TO.CVal,18pF*%
%TO.CLbN,Capacitor_SMD*%
%TO.CMnt,SMD*%
%TO.CRot,180*%
X130525000Y-73841310D03*
D11*
X131120000Y-73546310D02*
X131120000Y-74136310D01*
X129930000Y-74136310D01*
X129930000Y-73546310D01*
X131120000Y-73546310D01*
D12*
%TO.P,C2,1*%
X130775000Y-73841310D03*
D13*
%TO.P,C2,2*%
X130275000Y-73841310D03*
%TD*%
D10*
%TO.C,C11*%
%TO.CFtp,C_01005_0402Metric*%
%TO.CVal,0.1µF*%
%TO.CLbN,Capacitor_SMD*%
%TO.CMnt,SMD*%
%TO.CRot,90*%
X144800000Y-62616310D03*
D11*
X145095000Y-62021310D02*
X145095000Y-63211310D01*
X144505000Y-63211310D01*
X144505000Y-62021310D01*
X145095000Y-62021310D01*
D12*
%TO.P,C11,1*%
X144800000Y-62866310D03*
D13*
%TO.P,C11,2*%
X144800000Y-62366310D03*
%TD*%
D10*
%TO.C,C16*%
%TO.CFtp,C_01005_0402Metric*%
%TO.CVal,0.1µF*%
%TO.CLbN,Capacitor_SMD*%
%TO.CMnt,SMD*%
%TO.CRot,90*%
X144800000Y-67841310D03*
D11*
X145095000Y-67246310D02*
X145095000Y-68436310D01*
X144505000Y-68436310D01*
X144505000Y-67246310D01*
X145095000Y-67246310D01*
D12*
%TO.P,C16,1*%
X144800000Y-68091310D03*
D13*
%TO.P,C16,2*%
X144800000Y-67591310D03*
%TD*%
D10*
%TO.C,C15*%
%TO.CFtp,C_01005_0402Metric*%
%TO.CVal,0.1µF*%
%TO.CLbN,Capacitor_SMD*%
%TO.CMnt,SMD*%
%TO.CRot,90*%
X144300000Y-59116310D03*
D11*
X144595000Y-58521310D02*
X144595000Y-59711310D01*
X144005000Y-59711310D01*
X144005000Y-58521310D01*
X144595000Y-58521310D01*
D12*
%TO.P,C15,1*%
X144300000Y-59366310D03*
D13*
%TO.P,C15,2*%
X144300000Y-58866310D03*
%TD*%
D10*
%TO.C,C14*%
%TO.CFtp,C_01005_0402Metric*%
%TO.CVal,0.1µF*%
%TO.CLbN,Capacitor_SMD*%
%TO.CMnt,SMD*%
%TO.CRot,90*%
X142800000Y-58616310D03*
D11*
X143095000Y-58021310D02*
X143095000Y-59211310D01*
X142505000Y-59211310D01*
X142505000Y-58021310D01*
X143095000Y-58021310D01*
D12*
%TO.P,C14,1*%
X142800000Y-58866310D03*
D13*
%TO.P,C14,2*%
X142800000Y-58366310D03*
%TD*%
D10*
%TO.C,C12*%
%TO.CFtp,C_01005_0402Metric*%
%TO.CVal,0.1µF*%
%TO.CLbN,Capacitor_SMD*%
%TO.CMnt,SMD*%
%TO.CRot,90*%
X143250000Y-62166310D03*
D11*
X143545000Y-61571310D02*
X143545000Y-62761310D01*
X142955000Y-62761310D01*
X142955000Y-61571310D01*
X143545000Y-61571310D01*
D12*
%TO.P,C12,1*%
X143250000Y-62416310D03*
D13*
%TO.P,C12,2*%
X143250000Y-61916310D03*
%TD*%
D10*
%TO.C,C7*%
%TO.CFtp,C_01005_0402Metric*%
%TO.CVal,0.1µF*%
%TO.CLbN,Capacitor_SMD*%
%TO.CMnt,SMD*%
%TO.CRot,90*%
X141800000Y-66841310D03*
D11*
X142095000Y-66246310D02*
X142095000Y-67436310D01*
X141505000Y-67436310D01*
X141505000Y-66246310D01*
X142095000Y-66246310D01*
D12*
%TO.P,C7,1*%
X141800000Y-67091310D03*
D13*
%TO.P,C7,2*%
X141800000Y-66591310D03*
%TD*%
D10*
%TO.C,C10*%
%TO.CFtp,C_01005_0402Metric*%
%TO.CVal,0.1µF*%
%TO.CLbN,Capacitor_SMD*%
%TO.CMnt,SMD*%
%TO.CRot,-90*%
X141300000Y-64341310D03*
D11*
X141595000Y-63746310D02*
X141595000Y-64936310D01*
X141005000Y-64936310D01*
X141005000Y-63746310D01*
X141595000Y-63746310D01*
D12*
%TO.P,C10,1*%
X141300000Y-64091310D03*
D13*
%TO.P,C10,2*%
X141300000Y-64591310D03*
%TD*%
D10*
%TO.C,C6*%
%TO.CFtp,C_01005_0402Metric*%
%TO.CVal,0.1µF*%
%TO.CLbN,Capacitor_SMD*%
%TO.CMnt,SMD*%
%TO.CRot,-90*%
X143300000Y-67591310D03*
D11*
X143595000Y-66996310D02*
X143595000Y-68186310D01*
X143005000Y-68186310D01*
X143005000Y-66996310D01*
X143595000Y-66996310D01*
D12*
%TO.P,C6,1*%
X143300000Y-67341310D03*
D13*
%TO.P,C6,2*%
X143300000Y-67841310D03*
%TD*%
D10*
%TO.C,C13*%
%TO.CFtp,C_01005_0402Metric*%
%TO.CVal,0.1µF*%
%TO.CLbN,Capacitor_SMD*%
%TO.CMnt,SMD*%
%TO.CRot,90*%
X141800000Y-62116310D03*
D11*
X142095000Y-61521310D02*
X142095000Y-62711310D01*
X141505000Y-62711310D01*
X141505000Y-61521310D01*
X142095000Y-61521310D01*
D12*
%TO.P,C13,1*%
X141800000Y-62366310D03*
D13*
%TO.P,C13,2*%
X141800000Y-61866310D03*
%TD*%
D10*
%TO.C,C1*%
%TO.CFtp,C_01005_0402Metric*%
%TO.CVal,18pF*%
%TO.CLbN,Capacitor_SMD*%
%TO.CMnt,SMD*%
%TO.CRot,0*%
X130300000Y-68841310D03*
D11*
X130895000Y-68546310D02*
X130895000Y-69136310D01*
X129705000Y-69136310D01*
X129705000Y-68546310D01*
X130895000Y-68546310D01*
D12*
%TO.P,C1,1*%
X130050000Y-68841310D03*
D13*
%TO.P,C1,2*%
X130550000Y-68841310D03*
%TD*%
D10*
%TO.C,C9*%
%TO.CFtp,C_01005_0402Metric*%
%TO.CVal,0.1µF*%
%TO.CLbN,Capacitor_SMD*%
%TO.CMnt,SMD*%
%TO.CRot,90*%
X143300000Y-65091310D03*
D11*
X143595000Y-64496310D02*
X143595000Y-65686310D01*
X143005000Y-65686310D01*
X143005000Y-64496310D01*
X143595000Y-64496310D01*
D12*
%TO.P,C9,1*%
X143300000Y-65341310D03*
D13*
%TO.P,C9,2*%
X143300000Y-64841310D03*
%TD*%
D10*
%TO.C,C8*%
%TO.CFtp,C_01005_0402Metric*%
%TO.CVal,0.1µF*%
%TO.CLbN,Capacitor_SMD*%
%TO.CMnt,SMD*%
%TO.CRot,-90*%
X144800000Y-65341310D03*
D11*
X145095000Y-64746310D02*
X145095000Y-65936310D01*
X144505000Y-65936310D01*
X144505000Y-64746310D01*
X145095000Y-64746310D01*
D12*
%TO.P,C8,1*%
X144800000Y-65091310D03*
D13*
%TO.P,C8,2*%
X144800000Y-65591310D03*
%TD*%
D10*
%TO.C,R3*%
%TO.CFtp,R_0402_1005Metric*%
%TO.CVal,4.7kΩ*%
%TO.CLbN,Resistor_SMD*%
%TO.CMnt,SMD*%
%TO.CRot,90*%
X142012500Y-72641310D03*
D11*
X142477500Y-71716310D02*
X142477500Y-73566310D01*
X141547500Y-73566310D01*
X141547500Y-71716310D01*
X142477500Y-71716310D01*
D12*
%TO.P,R3,1*%
X142012500Y-73151310D03*
D13*
%TO.P,R3,2*%
X142012500Y-72131310D03*
%TD*%
D10*
%TO.C,U2*%
%TO.CFtp,LGA-14_3x2.5mm_P0.5mm_LayoutBorder3x4y*%
%TO.CVal,LSM6DS3*%
%TO.CLbN,Package_LGA*%
%TO.CMnt,SMD*%
%TO.CRot,90*%
X144200000Y-71391310D03*
D11*
X145695000Y-69646310D02*
X145695000Y-73136310D01*
X142705000Y-73136310D01*
X142705000Y-69646310D01*
X145695000Y-69646310D01*
D12*
%TO.P,U2,1,SDO/SA0*%
X143450000Y-72553810D03*
D13*
%TO.P,U2,2,SDX*%
X143950000Y-72553810D03*
%TO.P,U2,3,SCX*%
X144450000Y-72553810D03*
%TO.P,U2,4,INT1*%
X144950000Y-72553810D03*
%TO.P,U2,5,VDDIO*%
X145112500Y-71891310D03*
%TO.P,U2,6,GND*%
X145112500Y-71391310D03*
%TO.P,U2,7,GND*%
X145112500Y-70891310D03*
%TO.P,U2,8,VDD*%
X144950000Y-70228810D03*
%TO.P,U2,9,INT2*%
X144450000Y-70228810D03*
%TO.P,U2,10,NC*%
X143950000Y-70228810D03*
%TO.P,U2,11,NC*%
X143450000Y-70228810D03*
%TO.P,U2,12,CS*%
X143287500Y-70891310D03*
%TO.P,U2,13,SCL*%
X143287500Y-71391310D03*
%TO.P,U2,14,SDA*%
X143287500Y-71891310D03*
%TD*%
D10*
%TO.C,C4*%
%TO.CFtp,C_0603_1608Metric*%
%TO.CVal,10µF*%
%TO.CLbN,Capacitor_SMD*%
%TO.CMnt,SMD*%
%TO.CRot,180*%
X137600000Y-66241310D03*
D11*
X139075000Y-65516310D02*
X139075000Y-66966310D01*
X136125000Y-66966310D01*
X136125000Y-65516310D01*
X139075000Y-65516310D01*
D12*
%TO.P,C4,1*%
X138375000Y-66241310D03*
D13*
%TO.P,C4,2*%
X136825000Y-66241310D03*
%TD*%
D10*
%TO.C,U1*%
%TO.CFtp,QFN-40-1EP_5x5mm_P0.4mm_EP3.6x3.6mm*%
%TO.CVal,nRF52820-QDxx*%
%TO.CLbN,Package_DFN_QFN*%
%TO.CMnt,SMD*%
%TO.CRot,180*%
X138237500Y-71241310D03*
D11*
X140412500Y-68146310D02*
X140412500Y-68496310D01*
X140982500Y-68496310D01*
X140982500Y-69066310D01*
X141332500Y-69066310D01*
X141332500Y-73416310D01*
X140982500Y-73416310D01*
X140982500Y-73986310D01*
X140412500Y-73986310D01*
X140412500Y-74336310D01*
X136062500Y-74336310D01*
X136062500Y-73986310D01*
X135492500Y-73986310D01*
X135492500Y-73416310D01*
X135142500Y-73416310D01*
X135142500Y-69066310D01*
X135492500Y-69066310D01*
X135492500Y-68496310D01*
X136062500Y-68496310D01*
X136062500Y-68146310D01*
X140412500Y-68146310D01*
D12*
%TO.P,U1,1,DEC1*%
X140675000Y-73041310D03*
D13*
%TO.P,U1,2,XL1/P0.00*%
X140675000Y-72641310D03*
%TO.P,U1,3,XL2/P0.01*%
X140675000Y-72241310D03*
%TO.P,U1,4,AIN2/P0.04*%
X140675000Y-71841310D03*
%TO.P,U1,5,AIN3/P0.05*%
X140675000Y-71441310D03*
%TO.P,U1,6,P0.06*%
X140675000Y-71041310D03*
%TO.P,U1,7,P0.07*%
X140675000Y-70641310D03*
%TO.P,U1,8,VDD*%
X140675000Y-70241310D03*
%TO.P,U1,9,VDDH*%
X140675000Y-69841310D03*
%TO.P,U1,10,VBUS*%
X140675000Y-69441310D03*
%TO.P,U1,11,DECUSB*%
X140037500Y-68803810D03*
%TO.P,U1,12,D-*%
X139637500Y-68803810D03*
%TO.P,U1,13,D+*%
X139237500Y-68803810D03*
%TO.P,U1,14,P0.14*%
X138837500Y-68803810D03*
%TO.P,U1,15,P0.15*%
X138437500Y-68803810D03*
%TO.P,U1,16,P0.18/~{RESET}*%
X138037500Y-68803810D03*
%TO.P,U1,17,P0.20*%
X137637500Y-68803810D03*
%TO.P,U1,18,VDD*%
X137237500Y-68803810D03*
%TO.P,U1,19,SWDIO*%
X136837500Y-68803810D03*
%TO.P,U1,20,SWDCLK*%
X136437500Y-68803810D03*
%TO.P,U1,21,DEC5*%
X135800000Y-69441310D03*
%TO.P,U1,22,P0.16*%
X135800000Y-69841310D03*
%TO.P,U1,23,P0.17*%
X135800000Y-70241310D03*
%TO.P,U1,24,ANT*%
X135800000Y-70641310D03*
%TO.P,U1,25,VSS_PA*%
X135800000Y-71041310D03*
%TO.P,U1,26,DEC6*%
X135800000Y-71441310D03*
%TO.P,U1,27,DEC3*%
X135800000Y-71841310D03*
%TO.P,U1,28,XC1*%
X135800000Y-72241310D03*
%TO.P,U1,29,XC2*%
X135800000Y-72641310D03*
%TO.P,U1,30,VDD*%
X135800000Y-73041310D03*
%TO.P,U1,31,P0.08*%
X136437500Y-73678810D03*
%TO.P,U1,32,P0.29*%
X136837500Y-73678810D03*
%TO.P,U1,33,P0.30*%
X137237500Y-73678810D03*
%TO.P,U1,34,P0.28*%
X137637500Y-73678810D03*
%TO.P,U1,35,AIN1/P0.03*%
X138037500Y-73678810D03*
%TO.P,U1,36,AIN0/P0.02*%
X138437500Y-73678810D03*
%TO.P,U1,37,VSS*%
X138837500Y-73678810D03*
%TO.P,U1,38,DEC4*%
X139237500Y-73678810D03*
%TO.P,U1,39,DCC*%
X139637500Y-73678810D03*
%TO.P,U1,40,VDD*%
X140037500Y-73678810D03*
%TO.P,U1,41,VSS*%
X138237500Y-71241310D03*
%TD*%
D10*
%TO.C,C3*%
%TO.CFtp,C_0603_1608Metric*%
%TO.CVal,1µF*%
%TO.CLbN,Capacitor_SMD*%
%TO.CMnt,SMD*%
%TO.CRot,180*%
X137575000Y-62091310D03*
D11*
X139050000Y-61366310D02*
X139050000Y-62816310D01*
X136100000Y-62816310D01*
X136100000Y-61366310D01*
X139050000Y-61366310D01*
D12*
%TO.P,C3,1*%
X138350000Y-62091310D03*
D13*
%TO.P,C3,2*%
X136800000Y-62091310D03*
%TD*%
D10*
%TO.C,R2*%
%TO.CFtp,R_0402_1005Metric*%
%TO.CVal,4.7kΩ*%
%TO.CLbN,Resistor_SMD*%
%TO.CMnt,SMD*%
%TO.CRot,-90*%
X142012500Y-70691310D03*
D11*
X142477500Y-69766310D02*
X142477500Y-71616310D01*
X141547500Y-71616310D01*
X141547500Y-69766310D01*
X142477500Y-69766310D01*
D12*
%TO.P,R2,1*%
X142012500Y-70181310D03*
D13*
%TO.P,R2,2*%
X142012500Y-71201310D03*
%TD*%
D10*
%TO.C,C5*%
%TO.CFtp,C_0603_1608Metric*%
%TO.CVal,1µF*%
%TO.CLbN,Capacitor_SMD*%
%TO.CMnt,SMD*%
%TO.CRot,-90*%
X141200000Y-59241310D03*
D11*
X141925000Y-57766310D02*
X141925000Y-60716310D01*
X140475000Y-60716310D01*
X140475000Y-57766310D01*
X141925000Y-57766310D01*
D12*
%TO.P,C5,1*%
X141200000Y-58466310D03*
D13*
%TO.P,C5,2*%
X141200000Y-60016310D03*
%TD*%
D10*
%TO.C,R1*%
%TO.CFtp,R_0402_1005Metric*%
%TO.CVal,10kΩ*%
%TO.CLbN,Resistor_SMD*%
%TO.CMnt,SMD*%
%TO.CRot,90*%
X139700000Y-67091310D03*
D11*
X140165000Y-66166310D02*
X140165000Y-68016310D01*
X139235000Y-68016310D01*
X139235000Y-66166310D01*
X140165000Y-66166310D01*
D12*
%TO.P,R1,1*%
X139700000Y-67601310D03*
D13*
%TO.P,R1,2*%
X139700000Y-66581310D03*
%TD*%
D10*
%TO.C,U3*%
%TO.CFtp,DFN-6-1EP_3x3mm_P0.95mm_EP1.7x2.6mm*%
%TO.CVal,LDO40LPU33RY*%
%TO.CLbN,Package_DFN_QFN*%
%TO.CMnt,SMD*%
%TO.CRot,-90*%
X138300000Y-58716310D03*
D11*
X140145000Y-56821310D02*
X140145000Y-60611310D01*
X136455000Y-60611310D01*
X136455000Y-56821310D01*
X140145000Y-56821310D01*
D12*
%TO.P,U3,1,GND*%
X139250000Y-57376310D03*
D13*
%TO.P,U3,2,EN*%
X138300000Y-57376310D03*
%TO.P,U3,3,Vin*%
X137350000Y-57376310D03*
%TO.P,U3,4,Vout*%
X137350000Y-60056310D03*
%TO.P,U3,5,Vsense*%
X138300000Y-60056310D03*
%TO.P,U3,6,NC*%
X139250000Y-60056310D03*
%TO.P,U3,7,GND*%
X138300000Y-58716310D03*
%TD*%
D10*
%TO.C,BT1*%
%TO.CFtp,JST_PH_S2B-PH-SM4-TB_1x02-1MP_P2.00mm_Horizontal*%
%TO.CVal,3.7V Ultra-Thin LiPo Battery*%
%TO.CLbN,Connector_JST*%
%TO.CMnt,SMD*%
%TO.CRot,0*%
X131000000Y-62141310D03*
D11*
X132995000Y-57046310D02*
X132995000Y-58446310D01*
X135445000Y-58446310D01*
X135445000Y-62836310D01*
X135595000Y-62836310D01*
X135595000Y-67236310D01*
X133105000Y-67236310D01*
X133105000Y-67036310D01*
X128895000Y-67036310D01*
X128895000Y-67236310D01*
X126405000Y-67236310D01*
X126405000Y-62836310D01*
X126555000Y-62836310D01*
X126555000Y-58446310D01*
X129005000Y-58446310D01*
X129005000Y-57046310D01*
X132995000Y-57046310D01*
D12*
%TO.P,BT1,1,+*%
X130000000Y-59291310D03*
D13*
%TO.P,BT1,2,-*%
X132000000Y-59291310D03*
%TO.P,BT1,MP*%
X127650000Y-65041310D03*
X134350000Y-65041310D03*
%TD*%
D10*
%TO.C,Y1*%
%TO.CFtp,Crystal_SMD_3225-4Pin_3.2x2.5mm*%
%TO.CVal,32MHz*%
%TO.CLbN,Crystal*%
%TO.CMnt,SMD*%
%TO.CRot,90*%
X130450000Y-71441310D03*
D11*
X132195000Y-69346310D02*
X132195000Y-73536310D01*
X128705000Y-73536310D01*
X128705000Y-69346310D01*
X132195000Y-69346310D01*
D12*
%TO.P,Y1,1,1*%
X131300000Y-72541310D03*
D13*
%TO.P,Y1,2,2*%
X131300000Y-70341310D03*
%TO.P,Y1,3,3*%
X129600000Y-70341310D03*
%TO.P,Y1,4,4*%
X129600000Y-72541310D03*
%TD*%
M02*
